<svg width="158" height="191" viewBox="0 0 158 191" fill="none" xmlns="http://www.w3.org/2000/svg">
<g opacity="0.2">
<path d="M67.401 190.458C104.447 190.458 134.48 187.99 134.48 184.946C134.48 181.902 104.447 179.434 67.401 179.434C30.3544 179.434 0.322266 181.902 0.322266 184.946C0.322266 187.99 30.3544 190.458 67.401 190.458Z" fill="#369FFF"/>
</g>
<path d="M77.5174 187.521C48.2525 186.492 17.9802 182.498 2.30838 128.566C-2.35272 112.532 0.676636 100.393 5.79178 91.2413C7.05461 88.9782 8.44514 86.9066 9.87823 84.9981C10.4174 84.2816 10.9637 83.5863 11.51 82.9124C22.9463 68.8865 42.1228 63.8565 59.1284 70.0571C68.6634 73.5334 80.8944 78.6698 91.7987 85.3529C113.707 98.7828 118.85 114.086 126.008 140.35C126.626 142.606 127.236 145.131 127.704 147.82C127.952 149.253 128.158 150.736 128.3 152.24C129.889 169.04 123.412 189.132 77.5174 187.521Z" fill="#8AC53E"/>
<path d="M128.3 152.247C127.328 154.978 125.945 157.759 124.1 160.399C118.566 168.33 107.038 177.908 83.569 178.532C82.5332 178.561 81.5187 178.575 80.5113 178.575C71.5438 178.575 63.6334 177.489 56.4041 175.283C48.8413 172.977 42.2434 169.487 36.2273 164.634C26.1743 156.518 17.8808 144.649 9.3603 126.153C5.99041 118.846 4.24516 111.439 4.17421 104.139C4.13164 99.7901 4.67083 95.4695 5.79886 91.2554C7.06168 88.9922 8.45221 86.9206 9.8853 85.0122C9.52348 85.8494 9.16875 86.7291 8.83531 87.6443C5.77048 96.0513 3.65631 109.432 11.0133 125.394C25.9757 157.866 43.3218 177.773 83.5264 176.723C106.243 176.127 117.325 166.954 122.617 159.37C125.384 155.411 126.945 151.403 127.711 147.834C127.952 149.26 128.158 150.736 128.3 152.247Z" fill="#006838" fill-opacity="0.4"/>
<path d="M86.4346 52.7183C86.4346 52.7183 104.809 77.6484 109.002 90.0709C113.195 102.493 103.022 111.312 103.022 111.312L93.5716 114.859C93.5716 114.852 83.8592 71.0008 86.4346 52.7183Z" fill="#006ED3"/>
<path d="M84.8092 122.549C76.7782 125.21 57.1547 132.191 48.6342 129.367C48.2724 129.246 47.9389 129.112 47.6197 128.956C46.6903 128.502 45.9454 127.891 45.4204 127.097C42.0789 122.01 38.7657 100.663 40.2556 88.1195C40.44 86.5517 40.5323 84.849 40.5606 83.0611C40.6032 80.4291 40.5181 77.6126 40.4046 74.7818C39.986 64.1259 38.3046 56.7689 42.8664 54.1794C46.9599 51.8524 52.1389 50.0362 55.4378 49.2487C57.4811 48.7591 60.8297 47.7375 63.178 47.7801L73.3373 49.6247C73.3373 49.6247 82.1061 51.0861 84.1281 52.5831C86.15 54.0729 87.1858 60.6496 90.8395 66.6728C94.4932 72.6961 95.2878 78.7406 91.7973 85.3527C88.7608 91.1063 89.2929 88.9212 88.8956 98.3569C88.4132 109.921 100.495 117.356 84.8092 122.549Z" fill="white"/>
<g opacity="0.8">
<g opacity="0.8">
<path opacity="0.8" d="M57.8359 68.3688C57.8359 68.3688 68.8466 65.5239 82.9009 68.1489L83.2414 77.8613C83.2414 77.8613 67.7895 76.1444 58.0559 78.6204L57.8359 68.3688Z" fill="#CED3E6"/>
</g>
</g>
<g opacity="0.8">
<path opacity="0.8" d="M70.4865 60.1672C70.3375 60.1672 70.1886 60.1601 70.0325 60.153C64.0163 59.8409 58.4968 54.5342 58.2698 54.3071C58.1066 54.1511 58.1066 53.8886 58.2627 53.7254C58.4188 53.5622 58.6813 53.5622 58.8444 53.7183C58.9012 53.7679 64.3711 59.0392 70.0751 59.33C75.5378 59.6209 76.1976 54.2007 76.226 53.9666C76.2544 53.7396 76.453 53.5764 76.6801 53.6048C76.9071 53.6261 77.0702 53.8318 77.0419 54.0588C77.0419 54.1227 76.3182 60.1672 70.4865 60.1672Z" fill="#CED3E6"/>
</g>
<g opacity="0.8">
<path opacity="0.8" d="M53.4304 108.793C53.3878 108.758 53.3523 108.722 53.3169 108.672C53.1963 108.467 53.2601 108.204 53.4588 108.084C61.284 103.344 68.79 101.677 73.7065 101.11C79.0487 100.492 82.4895 100.989 82.6314 101.017C82.8655 101.053 83.0287 101.273 82.9932 101.507C82.9578 101.741 82.7378 101.904 82.5037 101.869C82.4682 101.862 79.0061 101.365 73.7704 101.975C68.9461 102.536 61.5749 104.182 53.8986 108.829C53.7567 108.907 53.5723 108.892 53.4304 108.793Z" fill="#CED3E6"/>
</g>
<path d="M63.6614 126.416C56.4321 124.124 49.8909 119.513 45.4285 115.405C45.0737 115.079 44.7332 114.76 44.4069 114.44C42.094 112.192 40.4623 113.348 39.7529 112.057C37.0498 107.112 38.5823 87.7083 39.7529 80.5783C40.9235 73.4554 36.0069 60.4015 38.6532 55.7333C41.2995 51.0651 50.4159 49.4334 50.4159 49.4334C50.4159 49.4334 49.1247 47.9293 51.5723 46.2054C54.0199 44.4814 60.5327 45.1979 60.5327 45.1979C60.8449 76.0378 65.2151 104.678 63.6614 126.416Z" fill="#369FFF"/>
<path d="M56.5518 117.576C56.3532 117.576 56.1829 117.434 56.1546 117.236C52.8627 95.8458 56.1191 55.6057 56.1546 55.2013C56.1758 54.9814 56.3674 54.8182 56.5873 54.8324C56.8073 54.8537 56.9775 55.0452 56.9562 55.2652C56.9208 55.6696 53.6786 95.8104 56.9562 117.108C56.9917 117.328 56.8356 117.534 56.6157 117.569C56.5944 117.576 56.5731 117.576 56.5518 117.576Z" fill="white"/>
<path d="M63.1712 120.783C62.9796 120.783 62.8093 120.648 62.7739 120.45C58.4675 95.8812 58.127 53.4844 58.127 53.0587C58.127 52.8388 58.3043 52.6543 58.5242 52.6543C58.7442 52.6543 58.9286 52.8317 58.9286 53.0516C58.9286 53.4773 59.2763 95.8032 63.5684 120.308C63.6039 120.528 63.462 120.733 63.2421 120.776C63.2137 120.783 63.1924 120.783 63.1712 120.783Z" fill="#006ED3"/>
<path d="M56.0273 52.8177C55.9918 52.8177 55.9563 52.8106 55.9208 52.8035C52.5155 51.8954 50.4297 49.8876 50.3375 49.8025C50.1814 49.6464 50.1743 49.391 50.3304 49.2349C50.4865 49.0788 50.7418 49.0718 50.8979 49.2278C50.9192 49.2491 52.927 51.1788 56.1195 52.0302C56.3323 52.0869 56.46 52.3069 56.4033 52.5268C56.3678 52.6971 56.2046 52.8177 56.0273 52.8177Z" fill="#006ED3"/>
<path d="M94.9836 112.951C94.9836 112.951 92.4083 121.627 82.8165 125.763C81.6246 102.238 78.9287 75.371 75.4453 46.7943C75.4453 46.7943 79.1132 46.1487 80.6385 48.2487C81.2983 49.1497 81.4402 50.6821 81.4402 50.6821C81.4402 50.6821 83.3131 51.0439 85.3634 52.0017C87.4138 52.9594 87.1796 54.2719 87.6692 57.6063C88.1587 60.9407 93.3093 66.0985 94.9836 73.0866C96.6579 80.0747 92.2168 84.53 90.8333 90.3972C89.4428 96.2502 94.9836 112.951 94.9836 112.951Z" fill="#369FFF"/>
<path d="M86.7462 116.59C86.5263 116.59 86.3489 116.42 86.3418 116.2C85.4124 84.1965 79.5665 55.5985 79.5098 55.3147C79.4672 55.0948 79.602 54.8819 79.8219 54.8394C80.0419 54.7968 80.2547 54.9316 80.2973 55.1515C80.354 55.4353 86.2141 84.0972 87.1435 116.179C87.1506 116.399 86.9732 116.59 86.7533 116.59C86.7533 116.59 86.7533 116.59 86.7462 116.59Z" fill="white"/>
<path d="M77.9221 53.7041C77.7305 53.7041 77.5602 53.5622 77.5248 53.3706C77.4893 53.1507 77.6383 52.945 77.8511 52.9024C77.8795 52.8953 80.4619 52.4271 81.0507 50.5612C81.1146 50.3484 81.3416 50.2278 81.5544 50.2987C81.7673 50.3626 81.8808 50.5896 81.8169 50.8024C81.072 53.1436 78.1065 53.6757 77.9859 53.697C77.9646 53.697 77.9433 53.7041 77.9221 53.7041Z" fill="#006ED3"/>
<path d="M85.8095 116.59C85.6109 116.59 85.4335 116.441 85.4122 116.235C82.5744 92.639 78.0907 54.9316 78.0481 54.5556C78.0198 54.3357 78.1829 54.1371 78.4029 54.1087C78.6228 54.0803 78.8214 54.2435 78.8498 54.4634C78.8924 54.8394 83.3761 92.5539 86.2139 116.143C86.2423 116.363 86.0862 116.562 85.8592 116.59C85.8379 116.59 85.8237 116.59 85.8095 116.59Z" fill="#006ED3"/>
<path d="M61.9797 133.532C63.207 134.412 65.1368 135.327 68.0384 136.249C84.4977 141.485 99.5877 133.035 99.5877 133.035C100.503 128.53 99.9354 123.408 98.4172 121.535C98.8925 120.868 98.5803 120.074 98.5803 120.074L113.727 104.352C105.114 111.489 94.4584 113.823 86.1649 118.839C86.1649 118.839 86.1649 118.839 86.1578 118.839C83.767 120.286 81.6173 121.556 80.0423 122.436C77.6373 123.784 74.5725 123.919 71.5644 123.5C65.7043 122.691 60.0855 119.804 60.0855 119.804C60.0855 119.804 41.2211 111.255 37.6881 111.539C34.9425 111.759 49.7416 127.204 61.9797 133.532Z" fill="#FF993A"/>
<path d="M91.1309 146.714C91.1309 146.714 86.2782 145.316 84.7813 143.741L81.4043 151.687L92.8903 155.27C92.8974 155.27 93.0535 148.289 91.1309 146.714Z" fill="#EA9B7A"/>
<path d="M118.849 169.664L104 136.71C103.446 136.668 102.751 136.817 101.971 137.101C99.0903 138.15 95.0394 141.045 92.4357 142.741C92.1306 142.939 91.8468 143.124 91.5843 143.287C91.1445 143.557 90.7685 143.769 90.4847 143.904C88.1931 144.933 89.3992 146.167 89.3992 146.167C93.6701 148.303 91.0664 154.631 93.6701 156.107C93.6701 156.107 94.7769 156.752 98.3099 158.306C101.843 159.86 105.397 163.613 108.689 166.685C112.939 170.658 115.606 171.119 117.132 170.757C118.352 170.473 118.849 169.664 118.849 169.664Z" fill="#006ED3"/>
<path d="M118.849 169.664L104 136.71C103.446 136.668 102.751 136.817 101.971 137.101L117.132 170.757C118.352 170.473 118.849 169.664 118.849 169.664Z" fill="#369FFF"/>
<path d="M105.518 140.073L105.078 139.094C104.405 140.577 103.099 142.258 100.602 143.245C97.2745 144.55 94.1955 143.585 92.4431 142.748C92.1381 142.947 91.8543 143.131 91.5918 143.294C93.3725 144.252 96.9269 145.614 100.914 144.053C103.298 143.103 104.702 141.556 105.518 140.073Z" fill="#369FFF"/>
<path d="M100.006 156.873C99.8992 156.632 99.6296 156.483 99.3529 156.532C99.0266 156.589 98.8137 156.901 98.8705 157.228L99.2891 159.519C99.3458 159.846 99.658 160.058 99.9843 160.002C100.311 159.945 100.524 159.633 100.467 159.306L100.048 157.015C100.041 156.965 100.027 156.916 100.006 156.873Z" fill="white"/>
<path d="M97.3728 155.603C97.2664 155.362 96.9968 155.213 96.7201 155.262C96.3938 155.319 96.1809 155.631 96.2377 155.958L96.6562 158.249C96.713 158.576 97.0252 158.788 97.3515 158.732C97.6779 158.675 97.8907 158.363 97.8339 158.036L97.4154 155.745C97.4083 155.688 97.3941 155.646 97.3728 155.603Z" fill="white"/>
<path d="M102.135 158.391C102.028 158.15 101.758 158.001 101.482 158.051C101.155 158.107 100.943 158.419 100.999 158.746L101.418 161.037C101.475 161.364 101.787 161.577 102.113 161.52C102.44 161.463 102.652 161.151 102.596 160.825L102.177 158.533C102.17 158.483 102.156 158.434 102.135 158.391Z" fill="white"/>
<path d="M104.213 159.931C104.106 159.689 103.837 159.54 103.56 159.59C103.234 159.647 103.021 159.959 103.078 160.285L103.496 162.577C103.553 162.903 103.865 163.116 104.191 163.059C104.518 163.003 104.731 162.69 104.674 162.364L104.255 160.073C104.241 160.023 104.227 159.973 104.213 159.931Z" fill="white"/>
<path d="M106.285 161.697C106.178 161.456 105.909 161.307 105.632 161.357C105.306 161.413 105.093 161.726 105.15 162.052L105.568 164.343C105.625 164.67 105.937 164.883 106.264 164.826C106.59 164.769 106.803 164.457 106.746 164.131L106.327 161.839C106.32 161.789 106.306 161.74 106.285 161.697Z" fill="white"/>
<path d="M108.293 163.726C108.186 163.485 107.917 163.336 107.64 163.386C107.314 163.442 107.101 163.754 107.158 164.081L107.576 166.372C107.633 166.699 107.945 166.911 108.271 166.855C108.598 166.798 108.811 166.486 108.754 166.159L108.335 163.868C108.321 163.811 108.307 163.769 108.293 163.726Z" fill="white"/>
<path d="M37.6952 111.539C37.6952 111.539 25.7552 105.097 18.8451 110.078C6.20267 119.187 27.6565 136.703 52.2035 145.259C76.7506 153.815 84.7177 152.645 84.7177 152.645C84.7177 152.645 90.0528 151.176 88.1586 142.535C88.1586 142.535 74.0121 137.157 66.648 131.524C59.2768 125.884 54.2609 118.981 37.6952 111.539Z" fill="#FF993A"/>
<path d="M87.1929 145.046C82.0422 143.812 71.5565 138.995 59.134 132.177C49.8402 127.076 39.1275 120.556 37.5525 118.293C36.7012 117.073 36.4883 116.072 36.914 115.32C37.5525 114.199 39.3971 114.086 40.2342 114.093C40.4471 114.093 40.6173 114.278 40.6032 114.49C40.589 114.689 40.4258 114.838 40.2271 114.838C39.4042 114.831 37.964 114.973 37.5596 115.689C37.2191 116.285 37.7015 117.2 38.1626 117.86C39.4326 119.684 48.4 125.43 59.4888 131.517C69.038 136.76 81.3754 142.876 87.3631 144.316L87.1929 145.046Z" fill="#FF7E07"/>
<path d="M86.221 141.386C85.6392 145.926 84.4615 150.055 81.9004 153.226C81.9004 153.226 84.0997 154.809 86.1074 153.673C87.6399 152.808 90.5983 145.713 89.4702 141.925C88.1861 141.223 87.0794 140.974 86.221 141.386Z" fill="#FF7E07"/>
<path d="M55.0767 145.813C55.0767 145.813 59.9577 144.869 61.3412 143.195L65.2361 150.892L54.0196 155.234C54.0125 155.241 53.2605 147.515 55.0767 145.813Z" fill="#EA9B7A"/>
<path d="M29.082 171.339L41.6961 137.47C42.2495 137.384 42.9447 137.491 43.7464 137.725C46.6906 138.583 50.9261 141.194 53.6362 142.719C53.9554 142.897 54.2463 143.06 54.523 143.202C54.9841 143.443 55.3672 143.635 55.6652 143.741C58.0206 144.614 57.0415 145.281 57.0415 145.281C52.4017 147.459 55.8 154.482 53.3027 156.135C53.3027 156.135 52.2385 156.852 48.819 158.64C45.3994 160.427 42.1005 164.407 39.0215 167.692C35.0485 171.935 32.4165 172.58 30.8698 172.318C29.6354 172.112 29.082 171.339 29.082 171.339Z" fill="#006ED3"/>
<path d="M29.082 171.339L41.6961 137.47C42.2495 137.384 42.9447 137.491 43.7464 137.725L30.8628 172.318C29.6354 172.112 29.082 171.339 29.082 171.339Z" fill="#369FFF"/>
<path d="M40.4043 140.924L40.7803 139.917C41.5536 141.35 42.9654 142.946 45.5265 143.755C48.9319 144.841 51.94 143.67 53.6356 142.712C53.9548 142.89 54.2457 143.053 54.5224 143.195C52.8126 144.273 49.3505 145.869 45.2711 144.571C42.8235 143.805 41.3195 142.343 40.4043 140.924Z" fill="#369FFF"/>
<path d="M47.0242 157.32C47.1164 157.072 47.3718 156.901 47.6485 156.937C47.9748 156.972 48.209 157.27 48.1735 157.597L47.911 159.909C47.8755 160.236 47.5775 160.47 47.2512 160.434C46.9248 160.399 46.6907 160.101 46.7262 159.775L46.9887 157.462C46.9958 157.412 47.01 157.362 47.0242 157.32Z" fill="white"/>
<path d="M49.5711 155.873C49.6633 155.624 49.9187 155.454 50.1954 155.49C50.5217 155.525 50.7558 155.823 50.7204 156.149L50.4579 158.462C50.4224 158.788 50.1244 159.023 49.7981 158.987C49.4717 158.952 49.2376 158.654 49.2731 158.327L49.5356 156.015C49.5427 155.965 49.5569 155.915 49.5711 155.873Z" fill="white"/>
<path d="M45.0086 158.98C45.1008 158.732 45.3562 158.569 45.6329 158.597C45.9592 158.632 46.1933 158.93 46.1579 159.257L45.8954 161.57C45.8599 161.896 45.5619 162.13 45.2356 162.095C44.9092 162.059 44.6751 161.761 44.7106 161.435L44.9731 159.122C44.9802 159.072 44.9944 159.023 45.0086 158.98Z" fill="white"/>
<path d="M43.0379 160.654C43.1301 160.406 43.3855 160.243 43.6622 160.271C43.9885 160.307 44.2226 160.605 44.1872 160.931L43.9247 163.244C43.8892 163.57 43.5912 163.804 43.2649 163.769C42.9385 163.733 42.7044 163.435 42.7399 163.109L43.0024 160.796C43.0095 160.747 43.0237 160.697 43.0379 160.654Z" fill="white"/>
<path d="M41.0867 162.556C41.1789 162.307 41.4343 162.144 41.711 162.173C42.0373 162.208 42.2715 162.506 42.236 162.832L41.9735 165.145C41.938 165.472 41.6401 165.706 41.3137 165.67C40.9874 165.635 40.7532 165.337 40.7887 165.01L41.0512 162.698C41.0583 162.648 41.0725 162.598 41.0867 162.556Z" fill="white"/>
<path d="M39.2195 164.705C39.3117 164.457 39.5671 164.287 39.8438 164.322C40.1702 164.358 40.4043 164.656 40.3688 164.982L40.1063 167.295C40.0708 167.621 39.7729 167.855 39.4465 167.82C39.1202 167.784 38.886 167.486 38.9215 167.16L39.184 164.847C39.1911 164.797 39.2053 164.755 39.2195 164.705Z" fill="white"/>
<path d="M108.859 106.303C108.859 106.303 120.154 98.7901 127.497 103.118C140.927 111.028 121.168 130.439 97.5081 141.208C73.855 151.978 65.8098 151.545 65.8098 151.545C65.8098 151.545 60.3683 150.573 61.4537 141.79C61.4537 141.79 75.0469 135.135 81.8647 128.85C88.6825 122.571 93.0457 115.235 108.859 106.303Z" fill="#FF993A"/>
<path d="M88.2013 145.259C86.8959 145.685 85.5764 146.118 84.2071 146.55C78.9146 148.218 72.8701 149.963 67.4002 151.304L67.3789 152.084C72.3238 150.878 78.12 149.246 84.427 147.26C85.6615 146.87 86.9172 146.465 88.18 146.047L88.2013 145.259Z" fill="#FF7E07"/>
<path d="M62.6455 144.209C67.6613 142.506 77.6646 136.753 89.4061 128.821C98.1891 122.89 108.263 115.412 109.618 113.015C110.349 111.723 110.477 110.709 109.98 109.999C109.242 108.942 107.398 108.992 106.561 109.077C106.348 109.098 106.192 109.297 106.227 109.51C106.263 109.701 106.433 109.836 106.632 109.822C107.455 109.744 108.895 109.751 109.37 110.425C109.76 110.986 109.37 111.943 108.973 112.646C107.88 114.575 99.4732 121.116 88.9875 128.204C79.9632 134.298 68.236 141.52 62.4043 143.507L62.6455 144.209Z" fill="#FF7E07"/>
<path d="M63.2702 140.478C64.2635 144.947 65.8172 148.949 68.6621 151.872C68.6621 151.872 66.6189 153.652 64.5189 152.702C62.9155 151.978 59.3186 145.181 60.0919 141.308C61.3051 140.492 62.3834 140.151 63.2702 140.478Z" fill="#FF7E07"/>
<path d="M61.7451 104.643L60.837 117.605C60.837 117.605 45.4206 115.405 37.8579 113.476C35.6515 112.915 33.1826 112.192 30.9124 110.986C26.7337 108.765 23.2716 104.898 23.527 97.3641C23.605 94.9449 24.0732 92.1496 25.0239 88.9003C30.5292 70.0786 39.7521 54.272 39.7521 54.272C51.6213 59.3516 50.6209 67.8083 50.6209 67.8083C47.2368 76.8396 39.7521 96.0729 39.7521 96.0729C44.1011 101.387 61.7451 104.643 61.7451 104.643Z" fill="#369FFF"/>
<path d="M39.7528 96.4773C39.6818 96.4773 39.6038 96.456 39.54 96.4134C38.2275 95.6046 34.6589 94.7604 34.6235 94.7533C34.4035 94.7036 34.2687 94.4837 34.3255 94.2709C34.3751 94.0509 34.5951 93.9232 34.8079 93.9729C34.9356 94.0013 37.44 94.5901 39.093 95.2996C38.8518 94.7604 38.4545 94.1857 37.9082 93.5614C37.7592 93.3911 37.7805 93.1428 37.9437 92.9938C38.114 92.8449 38.3623 92.8661 38.5113 93.0293C39.4619 94.1077 40.0011 95.0867 40.1501 96.0161C40.1785 96.1722 40.1075 96.3283 39.9798 96.4134C39.9089 96.456 39.8308 96.4773 39.7528 96.4773Z" fill="#084FC7"/>
<path d="M30.9202 110.986C26.7415 108.765 23.2794 104.899 23.5348 97.3643C26.8408 99.0953 32.6087 103.295 30.9202 110.986Z" fill="#006ED3"/>
<path d="M52.0549 102.649C52.0194 102.649 51.991 102.642 51.9556 102.635C44.3219 100.663 39.682 96.5482 39.4905 96.3708C39.3557 96.2502 39.3202 96.0516 39.3983 95.8884C44.8468 85.1827 48.2877 76.6835 50.2387 69.1349C50.2954 68.9221 50.5154 68.7873 50.7282 68.8441C50.941 68.9008 51.0758 69.1208 51.0191 69.3336C49.0681 76.8751 45.6485 85.3388 40.2567 95.9664C41.2854 96.8178 45.6556 100.173 52.1542 101.848C52.367 101.905 52.5018 102.124 52.4451 102.337C52.3954 102.529 52.2322 102.649 52.0549 102.649Z" fill="#084FC7"/>
<path d="M48.9962 75.1439C48.9111 75.1439 48.8188 75.1155 48.7479 75.0588C48.5705 74.9169 48.5421 74.6686 48.684 74.4912L51.5148 70.9368C51.6566 70.7595 51.905 70.7311 52.0823 70.873C52.2597 71.0149 52.2881 71.2632 52.1462 71.4406L49.3154 74.9949C49.2303 75.0871 49.1168 75.1439 48.9962 75.1439Z" fill="#084FC7"/>
<path d="M62.1927 42.4737L75.8851 44.4318C84.7816 43.5449 87.6124 40.0048 89.0667 32.5271C89.7975 28.7671 89.315 25.4468 88.5985 22.9779C88.414 20.1685 87.7684 17.7422 86.4418 16.1388C80.4327 8.8953 75.1402 9.17908 75.1402 9.17908C72.4514 7.94464 63.569 7.10039 57.709 14.2162C57.5245 14.3723 53.9489 18.1607 53.1259 26.1066C52.3313 33.6836 57.3897 43.3605 62.1927 42.4737Z" fill="#39393B"/>
<path d="M69.8403 11.1656C69.8403 11.1656 71.2663 -1.46265 60.0569 0.140709C52.7354 1.1836 48.202 11.1088 54.8992 15.6139C61.5964 20.1189 69.8403 11.1656 69.8403 11.1656Z" fill="#39393B"/>
<path d="M56.0282 16.9123C55.9715 16.9123 55.9147 16.8981 55.858 16.8698C55.6877 16.7775 55.6239 16.5576 55.7161 16.3873C58.3127 11.6695 62.016 9.5837 64.6623 8.66141C67.5356 7.66818 69.7703 7.78878 69.8626 7.78878C70.0612 7.80297 70.2102 7.96615 70.196 8.16479C70.1818 8.36344 70.0186 8.51243 69.82 8.49824C69.7349 8.49114 61.0866 8.09385 56.3404 16.7279C56.2695 16.8414 56.1489 16.9123 56.0282 16.9123Z" fill="#006ED3"/>
<path d="M63.2635 39.6213C63.2635 39.6213 54.5302 34.7332 56.247 24.5596C57.9639 14.3861 64.6611 8.26352 74.9269 11.2148C74.934 11.2148 73.9337 40.6216 63.2635 39.6213Z" fill="#39393B"/>
<path d="M87.5555 20.9131C87.5555 20.9131 88.4494 29.6464 86.8531 30.9093C85.2639 32.1721 83.7031 28.7171 83.7031 28.7171C83.7031 28.7171 85.8741 21.0124 87.5555 20.9131Z" fill="#39393B"/>
<path d="M83.5328 31.7043C83.5328 31.7043 86.1365 29.4199 87.0021 32.2222C87.8676 35.0245 86.1152 40.1823 82.873 38.813L83.5328 31.7043Z" fill="#D46A43"/>
<path d="M86.7408 38.1741C86.3861 38.5005 85.9888 38.7842 85.5561 39.0184C83.9172 39.8981 81.7818 40.0045 79.2136 38.6565C79.2136 38.6565 75.9288 34.3856 80.7815 26.8513C80.7815 26.8513 85.2297 25.6807 87.7767 28.3695C88.0604 28.6675 88.3158 29.008 88.5429 29.4053C88.6848 29.6465 88.8054 29.909 88.9189 30.1928C89.8199 32.4843 88.9827 36.138 86.7408 38.1741Z" fill="#FF993A"/>
<path d="M86.6277 27.4544C86.8334 26.447 87.0392 25.1984 87.174 23.8149C87.1101 23.8433 87.0463 23.8646 86.9753 23.8646C86.6986 23.8859 86.429 23.7724 86.1594 23.5737C86.0388 24.8649 85.8544 26.0355 85.6699 27.0075L86.6277 27.4544Z" fill="white"/>
<path d="M86.7414 38.1743C86.3867 38.5006 85.9894 38.7844 85.5566 39.0185C87.8056 34.3574 87.8695 30.1007 87.7772 28.3696C88.061 28.6676 88.3164 29.0081 88.5434 29.4054C88.5434 31.3635 88.2526 34.5844 86.7414 38.1743Z" fill="#FF7E07"/>
<path d="M75.9422 44.3039L74.8709 51.5261C74.8709 51.5261 70.451 57.1946 60.2207 47.9505C61.3842 45.0133 63.172 41.232 62.7109 38.3374C62.7109 38.3374 63.4558 39.0256 64.747 39.8414C65.0095 40.0117 65.2933 40.1891 65.5913 40.3664C68.2446 41.984 72.3027 44.0485 75.9422 44.3039Z" fill="#EA9B7A"/>
<path d="M75.9425 44.304L75.4388 47.681C72.452 46.5317 67.2872 44.0415 64.7402 39.8345C65.0027 40.0047 65.2865 40.1821 65.5845 40.3595C68.2449 41.9841 72.303 44.0486 75.9425 44.304Z" fill="#39393B"/>
<path d="M85.7546 32.0234C85.6411 32.7683 85.5347 33.4706 85.4212 34.1375C84.5982 39.1179 83.8462 41.7996 82.4628 42.8638C75.4605 48.2343 63.116 38.7419 62.7187 38.4368C62.7116 38.4297 62.7116 38.4297 62.7116 38.4297C62.6691 37.848 62.6407 37.2733 62.6265 36.7128C62.4633 31.9169 63.0522 27.5751 64.1447 23.5241C64.5633 19.1468 67.7487 15.486 72.0551 14.6063C76.5176 13.6982 80.0364 16.1245 82.2145 17.1603C85.4992 18.7353 87.0033 23.5099 86.081 29.8524C85.9675 30.6115 85.861 31.3423 85.7546 32.0234Z" fill="#EA9B7A"/>
<path d="M79.4958 37.8268C75.5796 37.8268 74.0117 34.0809 73.9976 34.0383C73.9266 33.8538 74.0117 33.6481 74.1962 33.5771C74.3807 33.5062 74.5864 33.5913 74.6573 33.7758C74.7283 33.939 76.3671 37.8268 80.638 37.0038C80.8296 36.9683 81.0211 37.096 81.0566 37.2876C81.0921 37.4791 80.9644 37.6636 80.7728 37.7062C80.3188 37.7913 79.8931 37.8268 79.4958 37.8268Z" fill="#39393B"/>
<path d="M76.4818 24.3047C77.4892 23.957 77.2835 22.4743 76.2193 22.4033C74.4102 22.2827 71.5014 22.3324 71.2602 23.7939C70.9055 25.9293 74.2825 25.0425 76.4179 24.326C76.4392 24.3189 76.4605 24.3118 76.4818 24.3047Z" fill="#39393B"/>
<path d="M81.8244 24.936C81.044 24.2124 81.8315 22.9354 82.8318 23.3043C84.5345 23.9286 87.1807 25.1418 86.8118 26.5749C86.2797 28.6748 83.5412 26.4968 81.874 24.9857C81.8527 24.9644 81.8386 24.9502 81.8244 24.936Z" fill="#39393B"/>
<path d="M76.6086 39.5789C77.3252 39.7563 77.9282 39.6215 77.9708 39.6073C78.0985 39.5789 78.1765 39.4512 78.1481 39.3235C78.1198 39.1958 77.9921 39.1178 77.8644 39.1462C77.8502 39.1462 76.6796 39.4087 75.7928 38.6283C75.6935 38.5431 75.5445 38.5502 75.4593 38.6496C75.3742 38.7489 75.3813 38.8979 75.4806 38.983C75.8424 39.3093 76.2397 39.4867 76.6086 39.5789Z" fill="#D46A43"/>
<path d="M79.0631 34.7123C78.9993 34.6839 78.9567 34.6272 78.9283 34.5633C78.8858 34.4285 78.9567 34.2795 79.0915 34.237L80.8013 33.6765L79.7868 32.6478C79.73 32.591 79.7016 32.513 79.7158 32.435L80.028 29.6043C80.0422 29.4624 80.1699 29.3559 80.3189 29.3772C80.4607 29.3914 80.5672 29.5191 80.5459 29.661L80.2408 32.364L81.4611 33.5985C81.5249 33.6623 81.5533 33.7545 81.532 33.8397C81.5107 33.9248 81.4469 33.9958 81.3618 34.0241L79.2547 34.7194C79.1908 34.7478 79.127 34.7407 79.0631 34.7123Z" fill="#39393B"/>
<path d="M74.6366 32.0018C74.5514 32.5907 73.2673 32.8815 71.7775 32.6616C70.2876 32.4417 69.1454 31.7819 69.2376 31.1931C69.3228 30.6042 70.6069 30.3133 72.0967 30.5333C73.5866 30.7603 74.7217 31.4201 74.6366 32.0018Z" fill="#D46A43"/>
<g opacity="0.8">
<g opacity="0.8">
<g opacity="0.8">
<g opacity="0.8">
<g opacity="0.8">
<g opacity="0.8">
<g opacity="0.8">
<g opacity="0.8">
<g opacity="0.8">
<g opacity="0.8">
<g opacity="0.8">
<path opacity="0.8" d="M85.7545 32.7118C85.641 33.4567 85.5346 34.1591 85.4211 34.826C84.0589 34.5706 83.0586 33.9533 83.1437 33.4071C83.2218 32.8466 84.3711 32.5557 85.7545 32.7118Z" fill="#D46A43"/>
</g>
</g>
</g>
</g>
</g>
</g>
</g>
</g>
</g>
</g>
</g>
<path d="M76.091 29.9022C75.9704 30.711 75.5092 31.3069 75.0552 31.2431C74.6011 31.1792 74.3386 30.4698 74.4522 29.661C74.5728 28.8522 75.0339 28.2563 75.4879 28.3201C75.942 28.384 76.2116 29.0934 76.091 29.9022Z" fill="#39393B"/>
<path d="M84.0715 31.0868C83.9508 31.8955 83.4897 32.4915 83.0357 32.4276C82.5816 32.3638 82.3191 31.6543 82.4326 30.8456C82.5532 30.0368 83.0144 29.4408 83.4684 29.5047C83.9225 29.5756 84.185 30.2851 84.0715 31.0868Z" fill="#39393B"/>
<path d="M65.8317 35.5566C65.7821 35.6418 64.3561 37.9404 62.7172 38.437C62.7101 38.4299 62.7101 38.4299 62.7101 38.4299C62.6676 37.8482 62.6392 37.2735 62.625 36.713C62.6818 36.706 64.2567 36.6705 65.8317 35.5566Z" fill="#39393B"/>
<path d="M65.1871 29.7317C65.1871 29.7317 62.6047 24.9216 59.7385 27.9723C57.376 30.4837 59.93 38.5006 64.279 36.358L65.1871 29.7317Z" fill="#EA9B7A"/>
<path d="M63.9462 35.0457C63.7759 35.0174 63.6553 34.8755 63.6624 34.6981C63.7901 31.3637 61.2148 29.8171 61.1084 29.7532C60.9523 29.661 60.8956 29.4553 60.9878 29.2921C61.08 29.1289 61.2858 29.0792 61.4489 29.1715C61.5695 29.2424 64.4854 30.9806 64.3364 34.7265C64.3293 34.9109 64.1732 35.0528 63.9888 35.0457C63.9746 35.0457 63.9604 35.0457 63.9462 35.0457Z" fill="#39393B"/>
<path d="M61.1505 32.5765C61.0512 32.5623 60.966 32.5056 60.9093 32.4134C60.817 32.2573 60.8667 32.0515 61.0299 31.9522C61.1789 31.8671 62.5055 31.1009 63.4633 31.5053C63.6336 31.5762 63.7116 31.7748 63.6407 31.9451C63.5697 32.1154 63.3711 32.1934 63.2008 32.1225C62.6474 31.8884 61.6684 32.3495 61.3704 32.5269C61.2995 32.5694 61.2214 32.5836 61.1505 32.5765Z" fill="#39393B"/>
<path d="M73.1831 34.1374C70.6574 33.1725 69.3875 30.3347 70.3523 27.809C71.3172 25.2834 74.155 24.0135 76.6807 24.9783C79.2063 25.9432 80.4762 28.781 79.5114 31.3066C78.5465 33.8323 75.7087 35.1022 73.1831 34.1374ZM76.4253 25.6452C74.2685 24.8222 71.8422 25.9077 71.0192 28.0644C70.1963 30.2212 71.2817 32.6475 73.4385 33.4705C75.5952 34.2934 78.0215 33.208 78.8445 31.0512C79.6674 28.8945 78.582 26.4682 76.4253 25.6452Z" fill="white"/>
<path d="M70.5073 28.462C70.4648 28.462 70.4222 28.4478 70.3796 28.4265C67.7263 27.2133 65.2361 28.1356 65.2077 28.1498C65.0233 28.2207 64.8175 28.1285 64.7466 27.9441C64.6756 27.7596 64.7679 27.5539 64.9523 27.4829C65.0658 27.4403 67.7547 26.44 70.6776 27.7809C70.855 27.866 70.933 28.0789 70.855 28.2562C70.784 28.391 70.6492 28.4691 70.5073 28.462Z" fill="white"/>
<path d="M84.0307 35.3649C81.5051 34.4 80.2351 31.5622 81.2 29.0366C82.1649 26.5109 85.0027 25.241 87.5283 26.2059C90.054 27.1707 91.3239 30.0085 90.359 32.5342C89.4013 35.0598 86.5564 36.3297 84.0307 35.3649ZM87.28 26.8728C85.1233 26.0498 82.6969 27.1352 81.874 29.292C81.051 31.4487 82.1365 33.875 84.2932 34.698C86.4499 35.521 88.8763 34.4355 89.6992 32.2788C90.5222 30.122 89.4367 27.6957 87.28 26.8728Z" fill="white"/>
<path d="M79.2845 29.2283C79.2277 29.1999 79.1851 29.1574 79.1497 29.1006C79.0432 28.9303 79.0929 28.7104 79.2632 28.604C79.3128 28.5756 80.5047 27.8449 81.7463 28.7955C81.9023 28.9161 81.9307 29.1432 81.8101 29.2993C81.6895 29.4553 81.4625 29.4837 81.3064 29.3631C80.455 28.7104 79.6463 29.207 79.6392 29.207C79.5257 29.2851 79.3909 29.2851 79.2845 29.2283Z" fill="white"/>
<path d="M81.9088 12.7616C84.8885 14.1025 87.2297 16.5856 88.2725 19.6788C88.9252 21.6156 89.4715 24.1767 86.7472 23.8433C79.3122 22.9423 75.3321 15.2234 75.3321 15.2234C75.3321 15.2234 73.8849 22.3321 68.0461 21.4666C62.2073 20.594 62.3917 16.1954 65.712 13.7052C68.415 11.6691 75.3038 9.78194 81.9088 12.7616Z" fill="#39393B"/>
<path d="M68.2727 20.6435C68.2727 20.6435 64.9524 24.212 66.1443 28.0501C67.3362 31.8883 67.4143 34.9673 66.1727 37.0318C66.1727 37.0318 65.8535 32.9879 64.3707 29.9231C63.1575 27.4045 62.0224 25.489 62.9021 22.5873C63.5052 20.6009 64.9595 18.6854 68.2727 20.6435Z" fill="#39393B"/>
<path d="M62.8738 38.0607C60.2985 38.685 58.305 38.3232 56.8293 37.3938C56.5952 37.2448 56.3753 37.0816 56.1624 36.9114C53.0692 34.3219 52.8422 28.9513 54.7364 26.3192C55.4033 25.3899 56.1766 24.7655 56.9925 24.3682C57.2408 24.2405 57.4891 24.1412 57.7374 24.0632C60.937 23.0132 64.4063 24.9358 64.4063 24.9358C68.0387 34.9107 62.8738 38.0607 62.8738 38.0607Z" fill="#FF993A"/>
<path d="M71.9345 42.4236C64.4072 40.8841 61.2076 35.4639 61.0586 35.2014C60.938 34.9957 61.0089 34.7261 61.2218 34.6055C61.4275 34.4849 61.6971 34.5558 61.8177 34.7687C61.8674 34.8538 65.7765 41.4233 74.9 41.9199C75.1412 41.9341 75.3257 42.1399 75.3115 42.3811C75.2973 42.6223 75.0916 42.8067 74.8504 42.7926C73.8146 42.7358 72.8426 42.6081 71.9345 42.4236Z" fill="white"/>
<path d="M77.2975 42.6793C77.1414 43.4314 76.4036 43.9209 75.6516 43.7648C74.8996 43.6087 74.41 42.8709 74.5661 42.1189C74.7222 41.3669 75.46 40.8773 76.2121 41.0334C76.9641 41.1895 77.4536 41.9202 77.2975 42.6793Z" fill="#243434"/>
<path d="M56.829 37.3936C56.5949 37.2446 56.3749 37.0814 56.1621 36.9112C58.5459 31.5193 57.7371 26.8086 56.9851 24.3681C57.2334 24.2404 57.4817 24.141 57.73 24.063C58.5388 26.6454 59.4114 31.6754 56.829 37.3936Z" fill="#FF7E07"/>
<path d="M87.3854 17.6568C86.7539 16.472 86.0516 15.6846 85.704 15.2944C85.4131 14.4501 85.1009 13.6555 84.6327 12.9177C83.0577 10.4204 80.5675 8.888 77.2189 8.3701C73.6078 7.80964 70.472 8.52618 67.9038 10.4914C67.1021 11.1015 66.3927 11.818 65.7542 12.5842C64.8744 13.6555 64.1437 14.8403 63.5478 16.0251C61.4762 20.1683 60.9796 24.425 60.9725 24.4818L59.9863 24.3753C60.0289 23.971 61.1427 14.4075 67.2937 9.69678C70.0818 7.56133 73.473 6.78093 77.3679 7.38396C81.0145 7.94443 83.7388 9.63293 85.4698 12.3856C86.4844 13.9748 87.0732 15.7981 87.3854 17.6568Z" fill="white"/>
<path d="M49.9552 126.835L46.5214 120.308C45.663 118.683 46.862 116.732 48.6995 116.746L102.639 117.328L101.05 125.685L49.9552 126.835Z" fill="#39393B"/>
<path d="M100.113 124.997H51.8422C50.6787 124.997 49.8344 124.053 49.9692 122.89L53.2611 93.0646C53.3888 91.9011 54.4388 90.9575 55.6023 90.9575H103.873C105.037 90.9575 105.881 91.9011 105.746 93.0646L102.454 122.89C102.327 124.053 101.277 124.997 100.113 124.997Z" fill="#39393B"/>
<path d="M51.1264 126.281C51.1122 126.281 51.0909 126.281 51.0767 126.281C50.8568 126.253 50.6936 126.047 50.722 125.827L54.7304 93.8877C54.7587 93.6678 54.9645 93.5046 55.1844 93.533C55.4043 93.5614 55.5675 93.7671 55.5391 93.987L51.5307 125.927C51.5024 126.132 51.325 126.281 51.1264 126.281Z" fill="#564C54"/>
<path d="M74.6089 108.509C74.4245 110.907 76.191 112.972 78.5464 113.121C80.9089 113.27 82.9734 111.453 83.1578 109.056C83.3423 106.658 81.5757 104.593 79.2204 104.444C76.8579 104.295 74.7934 106.111 74.6089 108.509Z" fill="#585859"/>
<path d="M100.348 127.593H51.4101C50.3318 127.593 49.5088 126.643 49.6507 125.578L50.119 122.166H102.64L102.108 126.054C101.987 126.941 101.235 127.593 100.348 127.593Z" fill="#39393B"/>
<path d="M114.055 62.5735C114.055 74.4808 123.709 84.1469 135.628 84.1469C147.536 84.1469 157.202 74.4923 157.202 62.5735C157.202 50.6661 147.547 41 135.628 41C123.709 41 114.055 50.6661 114.055 62.5735Z" fill="#369FFF"/>
<path d="M119.591 60V54.24H121.855C122.221 54.24 122.527 54.3147 122.775 54.464C123.023 54.6133 123.21 54.8067 123.335 55.044C123.461 55.2787 123.523 55.5267 123.523 55.788C123.523 56.1053 123.445 56.3773 123.287 56.604C123.133 56.8307 122.923 56.9853 122.659 57.068L122.651 56.872C123.019 56.9627 123.302 57.14 123.499 57.404C123.697 57.6653 123.795 57.9707 123.795 58.32C123.795 58.6587 123.727 58.9533 123.591 59.204C123.458 59.4547 123.262 59.6507 123.003 59.792C122.747 59.9307 122.437 60 122.071 60H119.591ZM120.439 59.204H121.943C122.133 59.204 122.302 59.168 122.451 59.096C122.603 59.024 122.722 58.9213 122.807 58.788C122.895 58.652 122.939 58.4907 122.939 58.304C122.939 58.1307 122.901 57.9747 122.823 57.836C122.749 57.6947 122.639 57.584 122.495 57.504C122.354 57.4213 122.187 57.38 121.995 57.38H120.439V59.204ZM120.439 56.592H121.843C121.998 56.592 122.137 56.5613 122.259 56.5C122.385 56.436 122.483 56.3453 122.555 56.228C122.63 56.108 122.667 55.964 122.667 55.796C122.667 55.572 122.593 55.388 122.443 55.244C122.294 55.1 122.094 55.028 121.843 55.028H120.439V56.592ZM126.467 60.12C126.035 60.12 125.661 60.0227 125.343 59.828C125.026 59.6333 124.781 59.3653 124.607 59.024C124.437 58.68 124.351 58.284 124.351 57.836C124.351 57.3853 124.439 56.9893 124.615 56.648C124.791 56.304 125.038 56.0373 125.355 55.848C125.673 55.656 126.043 55.56 126.467 55.56C126.899 55.56 127.274 55.6573 127.591 55.852C127.909 56.0467 128.154 56.3147 128.327 56.656C128.501 56.9973 128.587 57.3907 128.587 57.836C128.587 58.2867 128.499 58.684 128.323 59.028C128.15 59.3693 127.905 59.6373 127.587 59.832C127.27 60.024 126.897 60.12 126.467 60.12ZM126.467 59.332C126.881 59.332 127.189 59.1933 127.391 58.916C127.597 58.636 127.699 58.276 127.699 57.836C127.699 57.3853 127.595 57.0253 127.387 56.756C127.182 56.484 126.875 56.348 126.467 56.348C126.187 56.348 125.957 56.412 125.775 56.54C125.594 56.6653 125.459 56.84 125.371 57.064C125.283 57.2853 125.239 57.5427 125.239 57.836C125.239 58.2893 125.343 58.652 125.551 58.924C125.759 59.196 126.065 59.332 126.467 59.332ZM132.498 60V57.876C132.498 57.708 132.484 57.536 132.454 57.36C132.428 57.1813 132.374 57.016 132.294 56.864C132.217 56.712 132.106 56.5893 131.962 56.496C131.821 56.4027 131.636 56.356 131.406 56.356C131.257 56.356 131.116 56.3813 130.982 56.432C130.849 56.48 130.732 56.5587 130.63 56.668C130.532 56.7773 130.453 56.9213 130.394 57.1C130.338 57.2787 130.31 57.496 130.31 57.752L129.79 57.556C129.79 57.164 129.864 56.8187 130.01 56.52C130.157 56.2187 130.368 55.984 130.642 55.816C130.917 55.648 131.249 55.564 131.638 55.564C131.937 55.564 132.188 55.612 132.39 55.708C132.593 55.804 132.757 55.9307 132.882 56.088C133.01 56.2427 133.108 56.412 133.174 56.596C133.241 56.78 133.286 56.96 133.31 57.136C133.334 57.312 133.346 57.4667 133.346 57.6V60H132.498ZM129.462 60V55.68H130.21V56.928H130.31V60H129.462ZM133.748 61.92V61.128H133.968C134.189 61.128 134.351 61.0747 134.452 60.968C134.556 60.8613 134.608 60.6973 134.608 60.476V55.68H135.448V60.816C135.448 61.168 135.351 61.44 135.156 61.632C134.964 61.824 134.688 61.92 134.328 61.92H133.748ZM134.608 54.972V54.16H135.448V54.972H134.608ZM138.467 60.12C138.035 60.12 137.661 60.0227 137.343 59.828C137.026 59.6333 136.781 59.3653 136.607 59.024C136.437 58.68 136.351 58.284 136.351 57.836C136.351 57.3853 136.439 56.9893 136.615 56.648C136.791 56.304 137.038 56.0373 137.355 55.848C137.673 55.656 138.043 55.56 138.467 55.56C138.899 55.56 139.274 55.6573 139.591 55.852C139.909 56.0467 140.154 56.3147 140.327 56.656C140.501 56.9973 140.587 57.3907 140.587 57.836C140.587 58.2867 140.499 58.684 140.323 59.028C140.15 59.3693 139.905 59.6373 139.587 59.832C139.27 60.024 138.897 60.12 138.467 60.12ZM138.467 59.332C138.881 59.332 139.189 59.1933 139.391 58.916C139.597 58.636 139.699 58.276 139.699 57.836C139.699 57.3853 139.595 57.0253 139.387 56.756C139.182 56.484 138.875 56.348 138.467 56.348C138.187 56.348 137.957 56.412 137.775 56.54C137.594 56.6653 137.459 56.84 137.371 57.064C137.283 57.2853 137.239 57.5427 137.239 57.836C137.239 58.2893 137.343 58.652 137.551 58.924C137.759 59.196 138.065 59.332 138.467 59.332ZM143.094 60.116C142.796 60.116 142.545 60.068 142.342 59.972C142.14 59.876 141.974 59.7507 141.846 59.596C141.721 59.4387 141.625 59.268 141.558 59.084C141.492 58.9 141.446 58.72 141.422 58.544C141.398 58.368 141.386 58.2133 141.386 58.08V55.68H142.234V57.804C142.234 57.972 142.248 58.1453 142.274 58.324C142.304 58.5 142.357 58.664 142.434 58.816C142.514 58.968 142.625 59.0907 142.766 59.184C142.91 59.2773 143.097 59.324 143.326 59.324C143.476 59.324 143.617 59.3 143.75 59.252C143.884 59.2013 144 59.1213 144.098 59.012C144.2 58.9027 144.278 58.7587 144.334 58.58C144.393 58.4013 144.422 58.184 144.422 57.928L144.942 58.124C144.942 58.516 144.869 58.8627 144.722 59.164C144.576 59.4627 144.365 59.696 144.09 59.864C143.816 60.032 143.484 60.116 143.094 60.116ZM144.522 60V58.752H144.422V55.68H145.266V60H144.522ZM146.388 60V55.68H147.132V56.728L147.028 56.592C147.081 56.4533 147.151 56.3267 147.236 56.212C147.321 56.0947 147.42 55.9987 147.532 55.924C147.641 55.844 147.763 55.7827 147.896 55.74C148.032 55.6947 148.171 55.668 148.312 55.66C148.453 55.6493 148.589 55.656 148.72 55.68V56.464C148.579 56.4267 148.421 56.416 148.248 56.432C148.077 56.448 147.92 56.5027 147.776 56.596C147.64 56.684 147.532 56.7907 147.452 56.916C147.375 57.0413 147.319 57.1813 147.284 57.336C147.249 57.488 147.232 57.6493 147.232 57.82V60H146.388ZM120.687 71.116C120.266 71.116 119.911 71.004 119.623 70.78C119.338 70.556 119.141 70.2547 119.031 69.876L119.859 69.68C119.897 69.8587 119.991 70.012 120.143 70.14C120.298 70.2653 120.47 70.328 120.659 70.328C120.785 70.328 120.915 70.296 121.051 70.232C121.187 70.168 121.289 70.064 121.355 69.92C121.401 69.824 121.427 69.7147 121.435 69.592C121.443 69.4667 121.447 69.3213 121.447 69.156V65.24H122.295V69.156C122.295 69.3267 122.294 69.4787 122.291 69.612C122.291 69.7453 122.278 69.8707 122.251 69.988C122.227 70.1053 122.179 70.2267 122.107 70.352C121.955 70.616 121.755 70.8093 121.507 70.932C121.259 71.0547 120.986 71.116 120.687 71.116ZM125.414 71.12C124.984 71.12 124.607 71.0267 124.282 70.84C123.959 70.6507 123.707 70.388 123.525 70.052C123.347 69.7133 123.258 69.3213 123.258 68.876C123.258 68.404 123.346 67.9947 123.522 67.648C123.7 67.3013 123.948 67.0333 124.266 66.844C124.583 66.6547 124.952 66.56 125.374 66.56C125.814 66.56 126.188 66.6627 126.498 66.868C126.807 67.0707 127.038 67.36 127.19 67.736C127.344 68.112 127.406 68.5587 127.374 69.076H126.538V68.772C126.532 68.2707 126.436 67.9 126.25 67.66C126.066 67.42 125.784 67.3 125.406 67.3C124.987 67.3 124.672 67.432 124.462 67.696C124.251 67.96 124.146 68.3413 124.146 68.84C124.146 69.3147 124.251 69.6827 124.462 69.944C124.672 70.2027 124.976 70.332 125.374 70.332C125.635 70.332 125.86 70.2733 126.05 70.156C126.242 70.036 126.391 69.8653 126.498 69.644L127.318 69.904C127.15 70.2907 126.895 70.5907 126.554 70.804C126.212 71.0147 125.832 71.12 125.414 71.12ZM123.874 69.076V68.424H126.957V69.076H123.874ZM131.525 71.116C130.999 71.116 130.571 71 130.241 70.768C129.91 70.536 129.707 70.2093 129.633 69.788L130.488 69.656C130.542 69.88 130.665 70.0573 130.857 70.188C131.051 70.316 131.293 70.38 131.581 70.38C131.842 70.38 132.046 70.3267 132.193 70.22C132.342 70.1133 132.417 69.9667 132.417 69.78C132.417 69.6707 132.39 69.5827 132.337 69.516C132.286 69.4467 132.178 69.3813 132.013 69.32C131.847 69.2587 131.595 69.1827 131.257 69.092C130.886 68.996 130.591 68.8933 130.373 68.784C130.157 68.672 130.002 68.5427 129.909 68.396C129.818 68.2467 129.773 68.0667 129.773 67.856C129.773 67.5947 129.842 67.3667 129.981 67.172C130.119 66.9773 130.314 66.8267 130.565 66.72C130.818 66.6133 131.114 66.56 131.453 66.56C131.783 66.56 132.078 66.612 132.337 66.716C132.595 66.82 132.805 66.968 132.965 67.16C133.125 67.3493 133.221 67.572 133.253 67.828L132.397 67.984C132.367 67.776 132.27 67.612 132.105 67.492C131.939 67.372 131.725 67.3067 131.461 67.296C131.207 67.2853 131.002 67.328 130.845 67.424C130.687 67.5173 130.609 67.6467 130.609 67.812C130.609 67.908 130.638 67.9893 130.697 68.056C130.758 68.1227 130.875 68.1867 131.049 68.248C131.222 68.3093 131.478 68.3827 131.817 68.468C132.179 68.5613 132.467 68.6653 132.681 68.78C132.894 68.892 133.046 69.0267 133.137 69.184C133.23 69.3387 133.277 69.5267 133.277 69.748C133.277 70.1747 133.121 70.5093 132.809 70.752C132.499 70.9947 132.071 71.116 131.525 71.116ZM135.79 71.116C135.491 71.116 135.24 71.068 135.038 70.972C134.835 70.876 134.67 70.7507 134.542 70.596C134.416 70.4387 134.32 70.268 134.254 70.084C134.187 69.9 134.142 69.72 134.118 69.544C134.094 69.368 134.082 69.2133 134.082 69.08V66.68H134.93V68.804C134.93 68.972 134.943 69.1453 134.97 69.324C134.999 69.5 135.052 69.664 135.13 69.816C135.21 69.968 135.32 70.0907 135.462 70.184C135.606 70.2773 135.792 70.324 136.022 70.324C136.171 70.324 136.312 70.3 136.446 70.252C136.579 70.2013 136.695 70.1213 136.794 70.012C136.895 69.9027 136.974 69.7587 137.03 69.58C137.088 69.4013 137.118 69.184 137.118 68.928L137.638 69.124C137.638 69.516 137.564 69.8627 137.418 70.164C137.271 70.4627 137.06 70.696 136.786 70.864C136.511 71.032 136.179 71.116 135.79 71.116ZM137.218 71V69.752H137.118V66.68H137.962V71H137.218ZM139.163 65.972V65.16H139.999V65.972H139.163ZM139.163 71V66.68H139.999V71H139.163ZM142.853 71.116C142.327 71.116 141.899 71 141.569 70.768C141.238 70.536 141.035 70.2093 140.961 69.788L141.817 69.656C141.87 69.88 141.993 70.0573 142.185 70.188C142.379 70.316 142.621 70.38 142.909 70.38C143.17 70.38 143.374 70.3267 143.521 70.22C143.67 70.1133 143.745 69.9667 143.745 69.78C143.745 69.6707 143.718 69.5827 143.665 69.516C143.614 69.4467 143.506 69.3813 143.341 69.32C143.175 69.2587 142.923 69.1827 142.585 69.092C142.214 68.996 141.919 68.8933 141.701 68.784C141.485 68.672 141.33 68.5427 141.237 68.396C141.146 68.2467 141.101 68.0667 141.101 67.856C141.101 67.5947 141.17 67.3667 141.309 67.172C141.447 66.9773 141.642 66.8267 141.893 66.72C142.146 66.6133 142.442 66.56 142.781 66.56C143.111 66.56 143.406 66.612 143.665 66.716C143.923 66.82 144.133 66.968 144.293 67.16C144.453 67.3493 144.549 67.572 144.581 67.828L143.725 67.984C143.695 67.776 143.598 67.612 143.433 67.492C143.267 67.372 143.053 67.3067 142.789 67.296C142.535 67.2853 142.33 67.328 142.173 67.424C142.015 67.5173 141.937 67.6467 141.937 67.812C141.937 67.908 141.966 67.9893 142.025 68.056C142.086 68.1227 142.203 68.1867 142.377 68.248C142.55 68.3093 142.806 68.3827 143.145 68.468C143.507 68.5613 143.795 68.6653 144.009 68.78C144.222 68.892 144.374 69.0267 144.465 69.184C144.558 69.3387 144.605 69.5267 144.605 69.748C144.605 70.1747 144.449 70.5093 144.137 70.752C143.827 70.9947 143.399 71.116 142.853 71.116ZM145.634 71V70.116H146.518V71H145.634ZM147.923 71V70.116H148.807V71H147.923ZM150.212 71V70.116H151.096V71H150.212Z" fill="white"/>
<path d="M124.593 80.2161L112.996 82.6642L118.019 72.6763L124.593 80.2161Z" fill="#369FFF"/>
</svg>
