<svg width="257" height="299" viewBox="0 0 257 299" fill="none" xmlns="http://www.w3.org/2000/svg">
<g opacity="0.5">
<path d="M161.951 25.6209L171.427 20.072C172.42 19.4902 172.749 18.2239 172.161 17.2435C171.574 16.2632 170.292 15.94 169.299 16.5217L159.823 22.0707C158.829 22.6524 158.5 23.9187 159.088 24.8991C159.676 25.8795 160.958 26.2027 161.951 25.6209Z" fill="url(#paint0_linear_0_1070)"/>
<path d="M152.28 14.6324L158.679 5.70899C159.35 4.7735 159.136 3.48287 158.2 2.8263C157.264 2.16972 155.962 2.39583 155.291 3.33131L148.891 12.2547C148.221 13.1902 148.435 14.4809 149.371 15.1374C150.306 15.794 151.609 15.5679 152.28 14.6324Z" fill="url(#paint1_linear_0_1070)"/>
<path d="M164.565 38.3785L175.546 38.3109C176.697 38.3038 177.615 37.3716 177.596 36.2287C177.577 35.0858 176.629 34.1651 175.478 34.1722L164.497 34.2398C163.346 34.2469 162.428 35.1791 162.446 36.322C162.465 37.4649 163.414 38.3856 164.565 38.3785Z" fill="url(#paint2_linear_0_1070)"/>
</g>
<path fill-rule="evenodd" clip-rule="evenodd" d="M66.2864 167.414C72.3156 153.814 67.1902 145.814 81.1391 126.337C83.3905 123.193 94.0864 117.232 100.957 109.677C107.663 102.304 110.551 93.2948 112.351 93.405C116.216 93.6416 126.362 101.198 129.995 103.405C132.883 105.158 141.299 112.72 155.537 119.368C169.774 126.016 178.671 142.234 191.188 167.414C173.394 163.793 170.118 175.698 170.118 175.698C170.118 175.698 170.186 150.325 165.09 161.079C159.994 171.833 170.118 251.043 170.118 251.043H77.4606L91.3301 175.698C91.3301 175.698 60.2572 181.014 66.2864 167.414Z" fill="url(#paint3_linear_0_1070)"/>
<mask id="mask0_0_1070" style="mask-type:luminance" maskUnits="userSpaceOnUse" x="65" y="93" width="127" height="159">
<path fill-rule="evenodd" clip-rule="evenodd" d="M66.2864 167.414C72.3156 153.814 67.1902 145.814 81.1391 126.337C83.3905 123.193 94.0864 117.232 100.957 109.677C107.663 102.304 110.551 93.2948 112.351 93.405C116.216 93.6416 126.362 101.198 129.995 103.405C132.883 105.158 141.299 112.72 155.537 119.368C169.774 126.016 178.671 142.234 191.188 167.414C173.394 163.793 170.118 175.698 170.118 175.698C170.118 175.698 170.186 150.325 165.09 161.079C159.994 171.833 170.118 251.043 170.118 251.043H77.4606L91.3301 175.698C91.3301 175.698 60.2572 181.014 66.2864 167.414Z" fill="white"/>
</mask>
<g mask="url(#mask0_0_1070)">
<g style="mix-blend-mode:multiply" opacity="0.184839">
<path fill-rule="evenodd" clip-rule="evenodd" d="M86.42 112.519C86.42 112.519 127.885 118.957 132.841 101.795C137.796 84.6325 113.215 86.8306 113.215 86.8306L86.42 112.519Z" fill="url(#paint4_linear_0_1070)"/>
</g>
</g>
<path d="M158.042 164.361C176.405 189.507 191.103 207.476 199.181 206.482C210.014 206.517 227.687 187.563 246.71 170.791L244.472 152.536C236.492 168.843 214.674 175.967 205.202 182.935C201.147 181.996 191.291 174.572 172.219 138.845L158.042 164.361Z" fill="#6E9DFF"/>
<path fill-rule="evenodd" clip-rule="evenodd" d="M119.77 27.6917C134.052 26.693 145.357 37.6543 145.02 52.1745L144.367 80.2788C144.03 94.7989 135.527 107.145 125.375 107.855C115.224 108.565 105.085 97.5222 102.73 83.1903L98.1724 55.4504C95.8175 41.1184 105.487 28.6905 119.77 27.6917Z" fill="#FF7C7C"/>
<g opacity="0.275079">
<path fill-rule="evenodd" clip-rule="evenodd" d="M134.971 30.6278C131.89 28.6886 129.254 27.0295 119.77 27.6927C105.487 28.6914 95.8176 41.1194 98.1725 55.4513L102.73 83.1912C104.738 95.4123 112.406 105.242 120.916 107.432C114.47 101.026 110.024 88.02 110.15 77.2269L116.996 55.4844C117.822 54.516 117.911 53.7021 117.98 53.0725C118.147 51.5493 118.195 51.1053 128.27 52.1642C132.833 52.6437 137.647 50.5289 141.99 47.9014L140.934 33.5216C138.203 32.6616 136.53 31.6089 134.971 30.6278Z" fill="#FF7C7C" style="mix-blend-mode:multiply"/>
</g>
<path fill-rule="evenodd" clip-rule="evenodd" d="M102.727 85.2435C102.727 85.2435 98.0213 80.2248 95.9093 73.4958C91.5628 59.6474 89.884 43.4795 90.5456 36.5193C92.0857 20.319 111.427 12.1038 129.261 20.319C147.095 28.5342 150.631 44.1721 146.318 46.7942C142.004 49.4164 113.929 50.4866 108.328 44.1721C99.2971 46.7942 102.727 85.2435 102.727 85.2435Z" fill="url(#paint5_linear_0_1070)"/>
<ellipse cx="103.408" cy="62.5182" rx="6.25803" ry="6.693" transform="rotate(6 103.408 62.5182)" fill="#FF6A6A"/>
<path fill-rule="evenodd" clip-rule="evenodd" d="M13 93C13 93 40.187 120.469 60.6694 126.178C81.1519 131.886 133.2 144.123 133.2 144.123V295.836C133.2 295.836 85.5434 289.14 60.6694 281.125C35.7954 273.109 31 254.712 31 254.712L13 93Z" fill="url(#paint6_linear_0_1070)"/>
<path fill-rule="evenodd" clip-rule="evenodd" d="M6 97C6 97 40.187 123.469 60.6694 129.178C81.1519 134.886 133.2 144.123 133.2 144.123V295.836C133.2 295.836 85.5434 289.14 60.6694 281.125C35.7954 273.109 24 258.712 24 258.712L6 97Z" fill="url(#paint7_linear_0_1070)"/>
<path fill-rule="evenodd" clip-rule="evenodd" d="M0 106C0 106 40.187 126.469 60.6694 132.178C81.1519 137.886 133.2 143.123 133.2 143.123V298.836C133.2 298.836 85.5434 292.14 60.6694 284.125C35.7954 276.109 18 261.712 18 261.712L0 106Z" fill="url(#paint8_linear_0_1070)"/>
<path fill-rule="evenodd" clip-rule="evenodd" d="M187.927 118.209C211.286 112.158 257 110.79 257 110.79L243.8 266.502C243.8 266.502 206.954 270.928 187.927 276.441C168.9 281.954 132.2 298.836 132.2 298.836V143.123C132.2 143.123 164.569 124.261 187.927 118.209ZM167.046 178.273L160.394 182.012L161.275 188.701L160.191 193.463L159.108 198.136L164.142 202.967L159.519 211.606L160.497 216.404L158.3 220.312L161.624 225.656L159.488 232.112L159.394 238.332L167.044 235.599L171.151 235.226L174.825 232.998L179.305 229.561L184.999 229.758L188.259 230.461L193.985 227.098L198.602 228.668L203.535 225.962L206.625 224.595L212.922 227.184L218.293 224.531L225.296 223.376L226.905 218.859L224.438 213.47L227.154 207.256L225.41 202.443L226.748 196.102L228.97 191.937L227.287 185.972L225.604 180.02L227.91 174.272L228.576 161.764L215.985 163.395L208.419 166.376L202.218 165.179C202.218 165.179 196.382 166.228 193.985 166.764C192.529 167.089 184.769 174.179 184.769 174.179L176.461 173.743L171.729 174.02L167.046 178.273Z" fill="url(#paint9_linear_0_1070)"/>
<path fill-rule="evenodd" clip-rule="evenodd" d="M155 153.719C155 153.719 168.271 146.654 188.285 140.954C208.299 135.254 229.313 134.553 229.313 134.553V148.139C229.313 148.139 208.707 148.272 190.805 152.732C172.902 157.192 155 167.652 155 167.652V153.719Z" fill="url(#paint10_linear_0_1070)"/>
<path fill-rule="evenodd" clip-rule="evenodd" d="M158 254.719C158 254.719 166.299 248.622 186.313 242.922C206.327 237.222 225.43 236.888 225.43 236.888L224.43 248.474C224.43 248.474 208.618 248.622 190.715 253.082C172.813 257.541 158 267.652 158 267.652V254.719Z" fill="url(#paint11_linear_0_1070)"/>
<path opacity="0.6" d="M25.122 149.324C32.9324 154.446 37.8177 158.469 51.7751 163.716C72.1657 171.381 92.7333 175.431 113.11 174.807L112.777 164.966C94.2918 165.532 75.0696 161.651 56.1432 154.537C43.0704 149.623 30.2572 143.538 23.1714 138.891L25.122 149.324Z" fill="#D1D9E0"/>
<path opacity="0.6" d="M27.1692 171.863C35.1537 176.71 40.1757 180.525 54.3078 185.282C74.9534 192.23 93.6511 195.63 113.994 194.296L113.316 184.402C94.8619 185.613 77.5161 182.406 58.3529 175.956C45.1165 171.501 33.0982 165.832 25.8545 161.435L27.1692 171.863Z" fill="#D1D9E0"/>
<path opacity="0.6" d="M29.4878 192.663C37.3725 197.367 44.5486 202.113 58.4405 206.616C78.7353 213.195 94.7361 214.203 114.596 212.505L113.724 202.59C95.7073 204.13 81.0763 203.327 62.2387 197.22C49.2273 193.002 35.1596 186.51 28.0063 182.243L29.4878 192.663Z" fill="#D1D9E0"/>
<path opacity="0.6" fill-rule="evenodd" clip-rule="evenodd" d="M31.252 206.269L36.006 252.862C36.006 252.862 53.4693 263.344 74.6867 265.5C72.2772 249.07 72.2772 240.863 72.2772 221.269C48.0209 217.547 31.252 206.269 31.252 206.269Z" fill="#D1D9E0"/>
<rect x="246.547" y="147.6" width="10.2857" height="4.44444" rx="2.22222" transform="rotate(14 246.547 147.6)" fill="#FF7C7C"/>
<rect x="246.547" y="152.933" width="10.2857" height="4.44444" rx="2.22222" transform="rotate(14 246.547 152.933)" fill="#FF7C7C"/>
<rect x="246.547" y="158.266" width="10.2857" height="4.44444" rx="2.22222" transform="rotate(14 246.547 158.266)" fill="#FF7C7C"/>
<rect x="246.547" y="163.6" width="10.2857" height="4.44444" rx="2.22222" transform="rotate(14 246.547 163.6)" fill="#FF7C7C"/>
<rect x="15.1504" y="195.23" width="10" height="4" rx="2" transform="rotate(-176 15.1504 195.23)" fill="#FF7C7C"/>
<rect x="14.2822" y="190.306" width="10" height="4" rx="2" transform="rotate(-176 14.2822 190.306)" fill="#FF7C7C"/>
<rect x="13.4141" y="185.382" width="10" height="4" rx="2" transform="rotate(-176 13.4141 185.382)" fill="#FF7C7C"/>
<rect x="12.3721" y="180.473" width="10" height="4" rx="2" transform="rotate(-176 12.3721 180.473)" fill="#FF7C7C"/>
<defs>
<linearGradient id="paint0_linear_0_1070" x1="172.342" y1="16.1258" x2="158.427" y2="16.8551" gradientUnits="userSpaceOnUse">
<stop stop-color="#8FA1B0"/>
<stop offset="1" stop-color="#5F7083"/>
</linearGradient>
<linearGradient id="paint1_linear_0_1070" x1="157.911" y1="1.73167" x2="145.495" y2="8.05766" gradientUnits="userSpaceOnUse">
<stop stop-color="#8FA1B0"/>
<stop offset="1" stop-color="#5F7083"/>
</linearGradient>
<linearGradient id="paint2_linear_0_1070" x1="178.312" y1="35.3512" x2="165.896" y2="29.0252" gradientUnits="userSpaceOnUse">
<stop stop-color="#8FA1B0"/>
<stop offset="1" stop-color="#5F7083"/>
</linearGradient>
<linearGradient id="paint3_linear_0_1070" x1="210.317" y1="-30.3236" x2="37.0854" y2="50.5041" gradientUnits="userSpaceOnUse">
<stop stop-color="#A7CCFF"/>
<stop offset="1" stop-color="#6E9DFF"/>
</linearGradient>
<linearGradient id="paint4_linear_0_1070" x1="146.142" y1="65.666" x2="96.1196" y2="93.4771" gradientUnits="userSpaceOnUse">
<stop stop-color="#A7CCFF"/>
<stop offset="1" stop-color="#6E9DFF"/>
</linearGradient>
<linearGradient id="paint5_linear_0_1070" x1="127.313" y1="-14.8004" x2="91.6491" y2="28.461" gradientUnits="userSpaceOnUse">
<stop stop-color="#5E587E"/>
<stop offset="1" stop-color="#302C48"/>
</linearGradient>
<linearGradient id="paint6_linear_0_1070" x1="99.469" y1="158.786" x2="30.5242" y2="149.09" gradientUnits="userSpaceOnUse">
<stop stop-color="#929FAA"/>
<stop offset="1" stop-color="#D4DBE0"/>
</linearGradient>
<linearGradient id="paint7_linear_0_1070" x1="97.5047" y1="161.489" x2="24.7781" y2="150.447" gradientUnits="userSpaceOnUse">
<stop stop-color="#B8C6D1"/>
<stop offset="1" stop-color="#E3E7EB"/>
</linearGradient>
<linearGradient id="paint8_linear_0_1070" x1="95.8209" y1="168.543" x2="19.9474" y2="156.104" gradientUnits="userSpaceOnUse">
<stop stop-color="#F8F9FA"/>
<stop offset="1" stop-color="#EFF1F3"/>
</linearGradient>
<linearGradient id="paint9_linear_0_1070" x1="244.225" y1="113.716" x2="127.121" y2="119.927" gradientUnits="userSpaceOnUse">
<stop stop-color="#F1F3F7"/>
<stop offset="1" stop-color="#D6DCE2"/>
</linearGradient>
<linearGradient id="paint10_linear_0_1070" x1="229.313" y1="151.103" x2="155" y2="151.103" gradientUnits="userSpaceOnUse">
<stop stop-color="#D9DFE6"/>
<stop offset="1" stop-color="#C1CAD5"/>
</linearGradient>
<linearGradient id="paint11_linear_0_1070" x1="225.43" y1="252.27" x2="158" y2="252.27" gradientUnits="userSpaceOnUse">
<stop stop-color="#D9DFE6"/>
<stop offset="1" stop-color="#C1CAD5"/>
</linearGradient>
</defs>
</svg>
