<svg width="25" height="26" viewBox="0 0 25 26" fill="none" xmlns="http://www.w3.org/2000/svg">
<g clip-path="url(#clip0_501_3382)">
<path d="M9.99956 25.8535C10.4195 25.8438 10.8225 25.6859 11.1373 25.4078C11.4521 25.1296 11.6583 24.7491 11.7196 24.3335H8.21289C8.27587 24.7604 8.49177 25.1498 8.82043 25.4294C9.14908 25.709 9.56811 25.8597 9.99956 25.8535Z" fill="#909090"/>
<path d="M19.6732 21.5531C19.0303 20.98 18.4675 20.323 17.9999 19.5998C17.4894 18.6015 17.1834 17.5113 17.0999 16.3931V13.0998C17.0972 12.6997 17.0615 12.3006 16.9932 11.9064C16.4685 11.8015 15.9642 11.6124 15.4999 11.3464C15.6769 11.9163 15.7668 12.5097 15.7665 13.1064V16.3998C15.8482 17.7638 16.2235 19.0941 16.8665 20.2998C17.3268 21.0291 17.8729 21.7006 18.4932 22.2998H1.41987C2.04014 21.7006 2.58627 21.0291 3.04654 20.2998C3.68961 19.0941 4.06482 17.7638 4.14654 16.3998V13.0998C4.14303 12.3282 4.29174 11.5636 4.58416 10.8496C4.87659 10.1356 5.30697 9.4863 5.85068 8.93888C6.39439 8.39146 7.04074 7.95666 7.75272 7.65938C8.4647 7.3621 9.22832 7.20818 9.99987 7.20644C11.129 7.20734 12.2329 7.54127 13.1732 8.16644C13.0695 7.78576 13.0114 7.39414 12.9999 6.99977V6.57977C12.3038 6.23735 11.556 6.0121 10.7865 5.91311V5.07311C10.7865 4.83706 10.6928 4.61069 10.5259 4.44378C10.359 4.27687 10.1326 4.18311 9.89654 4.18311C9.66049 4.18311 9.43412 4.27687 9.26721 4.44378C9.1003 4.61069 9.00654 4.83706 9.00654 5.07311V5.94644C7.28368 6.18947 5.70692 7.0476 4.56735 8.36239C3.42778 9.67719 2.80236 11.3599 2.80654 13.0998V16.3931C2.72304 17.5113 2.41705 18.6015 1.90654 19.5998C1.44712 20.3213 0.893333 20.9783 0.25987 21.5531C0.188757 21.6156 0.131764 21.6925 0.0926814 21.7787C0.0535988 21.8649 0.033323 21.9585 0.0332031 22.0531V22.9598C0.0332031 23.1366 0.103441 23.3062 0.228465 23.4312C0.353489 23.5562 0.523059 23.6264 0.69987 23.6264H19.2332C19.41 23.6264 19.5796 23.5562 19.7046 23.4312C19.8296 23.3062 19.8999 23.1366 19.8999 22.9598V22.0531C19.8997 21.9585 19.8795 21.8649 19.8404 21.7787C19.8013 21.6925 19.7443 21.6156 19.6732 21.5531Z" fill="#909090"/>
<path d="M20 10C22.7614 10 25 7.76142 25 5C25 2.23858 22.7614 0 20 0C17.2386 0 15 2.23858 15 5C15 7.76142 17.2386 10 20 10Z" fill="#EB5757"/>
</g>
<defs>
<clipPath id="clip0_501_3382">
<rect width="25" height="26" fill="white"/>
</clipPath>
</defs>
</svg>
