<svg width="20" height="20" viewBox="0 0 20 20" fill="none" xmlns="http://www.w3.org/2000/svg">
<path d="M19.64 17.37C18.9971 16.7969 18.4343 16.1399 17.9667 15.4167C17.4561 14.4184 17.1502 13.3282 17.0667 12.21V8.91667C17.064 8.51663 17.0283 8.11751 16.96 7.72333C16.4353 7.61844 15.931 7.42933 15.4667 7.16333C15.6437 7.73323 15.7336 8.32659 15.7333 8.92333V12.2167C15.815 13.5807 16.1903 14.911 16.8333 16.1167C17.2936 16.846 17.8397 17.5175 18.46 18.1167H1.38667C2.00694 17.5175 2.55307 16.846 3.01333 16.1167C3.65641 14.911 4.03162 13.5807 4.11333 12.2167V8.91667C4.10982 8.14513 4.25854 7.38047 4.55096 6.66648C4.84338 5.95249 5.27377 5.3032 5.81748 4.75578C6.36118 4.20835 7.00753 3.77355 7.71951 3.47628C8.43149 3.179 9.19512 3.02508 9.96667 3.02333C11.0958 3.02424 12.1997 3.35817 13.14 3.98333C13.0363 3.60266 12.9782 3.21104 12.9667 2.81667V2.39667C12.2706 2.05424 11.5228 1.82899 10.7533 1.73V0.89C10.7533 0.653957 10.6596 0.427582 10.4927 0.260675C10.3258 0.0937677 10.0994 0 9.86333 0C9.62729 0 9.40092 0.0937677 9.23401 0.260675C9.0671 0.427582 8.97333 0.653957 8.97333 0.89V1.76333C7.25048 2.00637 5.67372 2.8645 4.53415 4.17929C3.39458 5.49408 2.76915 7.17676 2.77333 8.91667V12.21C2.68984 13.3282 2.38385 14.4184 1.87333 15.4167C1.41392 16.1382 0.86013 16.7952 0.226667 17.37C0.155554 17.4325 0.0985609 17.5094 0.0594783 17.5956C0.0203957 17.6818 0.000119864 17.7753 0 17.87V18.7767C0 18.9535 0.0702379 19.123 0.195262 19.2481C0.320286 19.3731 0.489856 19.4433 0.666667 19.4433H19.2C19.3768 19.4433 19.5464 19.3731 19.6714 19.2481C19.7964 19.123 19.8667 18.9535 19.8667 18.7767V17.87C19.8665 17.7753 19.8463 17.6818 19.8072 17.5956C19.7681 17.5094 19.7111 17.4325 19.64 17.37V17.37Z" fill="#909090"/>
</svg>
