<svg width="165" height="177" viewBox="0 0 165 177" fill="none" xmlns="http://www.w3.org/2000/svg">
<path fill-rule="evenodd" clip-rule="evenodd" d="M25.5003 0C27.9856 0 30.0799 2.01472 30.178 4.5L33.2192 81.5C33.3174 83.9853 29.8615 86 25.5003 86C21.1391 86 17.6832 83.9853 17.7813 81.5L20.8226 4.5C20.9207 2.01472 23.015 0 25.5003 0Z" fill="url(#paint0_linear_0_710)"/>
<path fill-rule="evenodd" clip-rule="evenodd" d="M139.501 0C141.987 0 144.081 2.01472 144.179 4.5L147.22 81.5C147.318 83.9853 143.862 86 139.501 86C135.14 86 131.684 83.9853 131.782 81.5L134.824 4.5C134.922 2.01472 137.016 0 139.501 0Z" fill="url(#paint1_linear_0_710)"/>
<path fill-rule="evenodd" clip-rule="evenodd" d="M28.0368 79H136.686C146.287 79 155.802 87.9543 157.958 99L164.327 131C166.568 142.046 159.063 151 147.543 151H17.18C5.66039 151 -1.84539 142.046 0.395633 131L6.76498 99C8.92107 87.9543 18.436 79 28.0368 79Z" fill="url(#paint2_linear_0_710)"/>
<path fill-rule="evenodd" clip-rule="evenodd" d="M0 135C0 123.954 8.95431 115 20 115H145C156.046 115 165 123.954 165 135C165 146.046 156.046 155 145 155H20C8.95431 155 0 146.046 0 135Z" fill="url(#paint3_linear_0_710)"/>
<path fill-rule="evenodd" clip-rule="evenodd" d="M0 138C0 126.954 8.95431 118 20 118H145C156.046 118 165 126.954 165 138V157C165 168.046 156.046 177 145 177H20C8.95431 177 0 168.046 0 157V138Z" fill="url(#paint4_linear_0_710)"/>
<path d="M34.5 152C34.5 152 39.5381 155 44.8667 155C50.1952 155 55.5238 152 55.5238 152" stroke="#292929" stroke-width="4" stroke-linecap="round"/>
<path d="M77.5 152C77.5 152 82.5381 155 87.8667 155C93.1952 155 98.5238 152 98.5238 152" stroke="#292929" stroke-width="4" stroke-linecap="round"/>
<ellipse cx="70" cy="162" rx="5" ry="3" fill="#282828"/>
<rect x="15" y="132" width="7.17526" height="7" rx="3.5" fill="#55AA62"/>
<rect x="47.2891" y="132" width="7.17526" height="7" rx="3.5" fill="#55AA62"/>
<rect x="59.2471" y="132" width="7.17526" height="7" rx="3.5" fill="#D06E6E"/>
<rect x="87.9482" y="132" width="7.17526" height="7" rx="3.5" fill="#636363"/>
<rect x="99.9072" y="132" width="7.17526" height="7" rx="3.5" fill="#636363"/>
<rect x="111.866" y="132" width="7.17526" height="7" rx="3.5" fill="#636363"/>
<rect x="123.825" y="132" width="7.17526" height="7" rx="3.5" fill="#636363"/>
<path opacity="0.11" fill-rule="evenodd" clip-rule="evenodd" d="M13.4334 116.504C15.2119 102.367 18.4578 87.1599 18.7095 82.7704C20.6799 79.0635 26.5667 78.0284 26.5667 78.0284L25.3322 113.896C25.3322 113.896 16.2021 113.825 13.4334 116.504Z" fill="url(#paint5_linear_0_710)"/>
<defs>
<linearGradient id="paint0_linear_0_710" x1="33.2213" y1="22.8977" x2="22.8964" y2="22.8977" gradientUnits="userSpaceOnUse">
<stop stop-color="#292929"/>
<stop offset="1" stop-color="#3D3D3D"/>
</linearGradient>
<linearGradient id="paint1_linear_0_710" x1="147.222" y1="22.8977" x2="136.897" y2="22.8977" gradientUnits="userSpaceOnUse">
<stop stop-color="#292929"/>
<stop offset="1" stop-color="#3D3D3D"/>
</linearGradient>
<linearGradient id="paint2_linear_0_710" x1="97.9749" y1="-2.90699" x2="58.9939" y2="123.599" gradientUnits="userSpaceOnUse">
<stop stop-color="#292929"/>
<stop offset="1" stop-color="#3D3D3D"/>
</linearGradient>
<linearGradient id="paint3_linear_0_710" x1="251.708" y1="107.201" x2="222.789" y2="17.5165" gradientUnits="userSpaceOnUse">
<stop stop-color="#2C2C2C"/>
<stop offset="1" stop-color="#5D5D5D"/>
</linearGradient>
<linearGradient id="paint4_linear_0_710" x1="269.969" y1="158.788" x2="245.548" y2="50.7542" gradientUnits="userSpaceOnUse">
<stop stop-color="#292929"/>
<stop offset="1" stop-color="#3D3D3D"/>
</linearGradient>
<linearGradient id="paint5_linear_0_710" x1="26.5667" y1="78.0284" x2="12.1074" y2="78.5334" gradientUnits="userSpaceOnUse">
<stop stop-opacity="0.01"/>
<stop offset="1" stop-color="white"/>
</linearGradient>
</defs>
</svg>
