<svg width="50" height="110" viewBox="0 0 50 110" fill="none" xmlns="http://www.w3.org/2000/svg">
<g clip-path="url(#clip0_501_2827)">
<path d="M24.7315 0C24.6197 0 24.5312 0.0898809 24.5312 0.203415V7.17628C24.5312 7.28981 24.6197 7.37969 24.7315 7.37969C24.8433 7.37969 24.9317 7.28981 24.9317 7.17628V0.203415C24.9317 0.0898809 24.8433 0 24.7315 0Z" fill="#FFC000"/>
<path d="M24.7315 0C24.7082 0 24.6849 0.00473057 24.6663 0.0141917C24.7874 0.108803 24.8665 0.345332 24.8572 0.562938C24.8386 1.09749 24.8619 4.37105 24.7874 5.64357C24.7734 5.88956 24.6058 5.87064 24.5312 5.86118V7.17155C24.5312 7.28508 24.6197 7.37496 24.7315 7.37496C24.8433 7.37496 24.9317 7.28508 24.9317 7.17155V0.203415C24.9317 0.0898809 24.8433 0 24.7315 0Z" fill="#FFD143"/>
<path d="M27.27 7.38428H22.3105V9.9719H27.27V7.38428Z" fill="#FFD143"/>
<path d="M26.9534 7.49308C26.1151 8.24524 25.2117 8.51961 24.1081 8.51961C23.4841 8.51961 22.9159 8.62369 22.3105 8.51961V9.9719H27.27V7.38428H27.0512C27.0139 7.41739 26.9906 7.45997 26.9534 7.49308Z" fill="#FFC000"/>
<path d="M28.7702 49.6049L28.7283 49.5576C27.7643 40.6074 26.7911 28.0051 26.6467 12.7159L26.6421 12.4604H22.8794L22.8747 12.7159C22.5767 44.1742 18.7861 64.3028 18.7441 64.5015L19.1633 64.6198C19.1679 64.6056 19.1959 64.44 19.2471 64.1609L21.2774 62.5761L22.898 64.1703C22.884 64.3974 22.8747 64.5204 22.8747 64.5393L23.3031 64.5772C23.3031 64.5583 23.3171 64.3927 23.3311 64.0994L24.77 62.4863L26.1904 64.1987C26.2043 64.4305 26.2136 64.563 26.2136 64.5772L26.6421 64.5346C26.6421 64.5204 26.6327 64.4258 26.6234 64.265L28.3045 62.5336L30.265 64.0994C30.3209 64.4163 30.3535 64.5961 30.3582 64.615L30.7773 64.4968C30.7587 64.3927 29.7481 59.0471 28.733 49.638L28.7702 49.6049ZM28.6491 52.6987L27.4384 51.3789L28.3558 50.1489C28.4582 51.0383 28.556 51.885 28.6491 52.6987ZM27.8761 58.5031L26.5489 57.2542H29.0077L27.8761 58.5031ZM27.8901 58.9856L29.3989 60.4048H26.6048L27.8901 58.9856ZM26.4465 56.7954L27.5641 55.362L28.9844 56.7954H26.4465ZM27.5362 54.8558L26.2555 53.5597H28.542L27.5362 54.8558ZM26.1531 53.0961L27.2521 51.6249L28.5979 53.0961H26.1531ZM20.5789 56.7954L21.9806 55.3431L23.1215 56.7954H20.5789ZM23.1495 57.2542L21.7617 58.5078L20.5743 57.2542H23.1495ZM20.998 53.5597H23.2333L21.9992 54.8369L20.998 53.5597ZM21.012 53.0961L22.288 51.6343L23.3357 53.0961H21.012ZM24.4673 15.9185L23.8992 17.1106L23.4009 15.9185H24.4673ZM23.3125 15.4549L23.8899 14.3385L24.458 15.4549H23.3125ZM25.6269 17.1626L25.0401 15.9138H26.181L25.6269 17.1626ZM25.6269 17.5316L26.1904 18.7332H25.096L25.6269 17.5316ZM24.9749 15.4549L25.5943 14.3006L26.2462 15.4549H24.9749ZM25.5431 17.3471L24.9423 18.7001C24.933 17.8107 24.9284 16.9214 24.9237 16.032L25.5431 17.3471ZM24.947 19.1873H24.9516H24.947C24.947 19.1921 24.947 19.1921 24.947 19.1873ZM25.9622 49.3778L26.9354 47.8783L28.1835 49.3778H25.9622ZM28.2161 49.8414L27.2335 51.1518L26.032 49.8414H28.2161ZM23.8433 56.7954L24.7654 55.3053L25.72 56.7954H23.8433ZM25.6781 57.2542L24.8166 58.3849L24.0203 57.2542H25.6781ZM24.3789 41.6717L24.7281 40.1059L25.0681 41.7001C25.0681 41.7474 25.0727 41.7947 25.0727 41.8468H24.3742C24.3789 41.79 24.3789 41.7285 24.3789 41.6717ZM23.8433 24.6748L24.4161 23.5205C24.4021 24.3153 24.3928 25.11 24.3789 25.9L23.8433 24.6748ZM25.0914 42.3104C25.0914 42.334 25.0913 42.3577 25.096 42.3766L24.7281 43.4599L24.3556 42.3766C24.3556 42.3529 24.3556 42.3293 24.3602 42.3056H25.0914V42.3104ZM25.1146 42.897C25.1379 43.5498 25.1659 44.1884 25.1938 44.8223L24.8259 43.7485L25.1146 42.897ZM24.7281 44.0418L25.2217 45.4799C25.2217 45.5272 25.2264 45.5792 25.2264 45.6265H24.2345C24.2345 45.5792 24.2392 45.5272 24.2392 45.4799L24.7281 44.0418ZM25.2683 46.6388C25.2962 47.2869 25.3242 47.9208 25.3521 48.5405L24.8958 47.5045L25.2683 46.6388ZM24.7374 47.145L24.2718 46.0854H25.1891L24.7374 47.145ZM24.5838 47.5093L24.1134 48.6115C24.1414 47.9634 24.1693 47.3011 24.1972 46.6246L24.5838 47.5093ZM24.7421 47.8735L25.3894 49.3447C25.3894 49.3542 25.3894 49.3684 25.3894 49.3778H24.0948L24.7421 47.8735ZM25.436 50.2908C25.4732 51.0572 25.5058 51.8046 25.5431 52.5284L24.9004 51.2937L25.436 50.2908ZM25.3987 38.9422L26.2835 40.1816L25.4918 41.5346C25.4592 40.6783 25.4313 39.8174 25.3987 38.9422ZM25.5337 42.6084L26.5117 43.8904L25.6409 45.2954C25.6036 44.4202 25.571 43.5214 25.5337 42.6084ZM25.3428 49.8414L24.7374 50.9815L24.146 49.8414H25.3428ZM25.5105 53.0961H23.9365L24.7328 51.6059L25.5105 53.0961ZM25.4639 53.5597L24.7607 54.695L24.0296 53.5597H25.4639ZM24.5698 55.0025L23.7595 56.3176C23.7968 55.5607 23.834 54.7612 23.8759 53.9192L24.5698 55.0025ZM24.9516 54.9978L25.6129 53.9287C25.6548 54.7281 25.6921 55.4897 25.7293 56.2088L24.9516 54.9978ZM25.6874 46.3787L26.7399 47.6417L25.8085 49.0751C25.7666 48.1999 25.7293 47.3059 25.6874 46.3787ZM26.9122 47.3768L25.8364 46.0854H27.7504L26.9122 47.3768ZM25.7433 45.6218L26.6793 44.108L27.8295 45.6218H25.7433ZM26.6607 43.6539L25.6362 42.3104H27.4896L26.6607 43.6539ZM25.557 41.8468L26.4232 40.3708L27.4803 41.8468H25.557ZM26.4092 39.9687L25.4639 38.6536H27.1776L26.4092 39.9687ZM25.3661 37.9819C25.3335 36.9743 25.3009 35.9525 25.2683 34.9165L26.1531 36.3546L25.3661 37.9819ZM25.2357 33.8001C25.2078 32.9013 25.1845 31.9883 25.1612 31.0705L25.9482 32.4045L25.2357 33.8001ZM25.1426 30.2569L25.8923 28.7052L26.6886 30.2569H25.1426ZM25.1286 29.85C25.1053 28.937 25.0867 28.0193 25.0681 27.0921L25.7852 28.4924L25.1286 29.85ZM25.0448 26.0419C25.0262 25.1668 25.0122 24.2822 24.9982 23.3975L25.6502 24.7268L25.0448 26.0419ZM25.7573 24.9492L26.4604 26.3825H25.096L25.7573 24.9492ZM25.7573 24.5092L25.0774 23.1232H26.3999L25.7573 24.5092ZM25.0494 22.6596L25.7154 21.0796L26.4185 22.6596H25.0494ZM24.9842 22.423C24.9703 21.4107 24.9563 20.3889 24.947 19.3671L25.6269 20.8903L24.9842 22.423ZM24.9703 39.0368C24.9936 39.6944 25.0168 40.3424 25.0401 40.9858L24.7933 39.8221L24.9703 39.0368ZM24.7374 39.5335L24.5512 38.6536H24.933L24.7374 39.5335ZM24.6722 39.8174L24.4068 41.0047C24.4301 40.3093 24.4534 39.6045 24.4767 38.8949L24.6722 39.8174ZM24.4347 22.0446L23.9504 20.8336L24.458 19.7077C24.4534 20.4882 24.4441 21.2688 24.4347 22.0446ZM24.472 18.4777L23.9784 17.2998L24.486 16.2307C24.4813 16.9781 24.4767 17.7303 24.472 18.4777ZM24.4115 18.7285H23.2938L23.8899 17.4796L24.4115 18.7285ZM24.4673 19.1873C24.4673 19.2346 24.4673 19.2867 24.4673 19.334L23.8759 20.6396L23.2985 19.1921H24.4673V19.1873ZM24.4301 22.4372C24.4301 22.5129 24.4301 22.5839 24.4254 22.6596H23.1262L23.8666 21.0275L24.4301 22.4372ZM24.3975 23.1184L23.7409 24.443L23.1588 23.1184H24.3975ZM24.3695 26.3494C24.3695 26.3589 24.3695 26.3731 24.3695 26.3825H22.9958L23.7316 24.8971L24.3695 26.3494ZM24.3369 42.897L24.6303 43.7485L24.2671 44.8223C24.2904 44.1931 24.3137 43.5498 24.3369 42.897ZM24.295 29.8169L23.6664 28.4403L24.3509 27.1016C24.3369 28.0146 24.3183 28.9181 24.295 29.8169ZM24.1926 33.9325L23.5453 32.4093L24.2624 31.1036C24.2438 32.0592 24.2205 33.0006 24.1926 33.9325ZM23.4522 32.1822L22.8328 30.7157H24.2624L23.4522 32.1822ZM24.0808 34.1454H22.5953L23.4335 32.6222L24.0808 34.1454ZM24.1507 34.6043L23.2799 36.0944L22.572 34.6043H24.1507ZM24.1646 34.9638C24.1367 35.9146 24.1088 36.856 24.0808 37.7832L23.3777 36.3073L24.1646 34.9638ZM24.5698 51.2937L23.9458 52.4669C23.9784 51.7621 24.011 51.0335 24.0436 50.2814L24.5698 51.2937ZM23.9551 41.5204L23.1821 40.1911L24.0389 38.9517C24.0156 39.8221 23.9877 40.6783 23.9551 41.5204ZM23.061 39.9782L22.2926 38.6489H23.983L23.061 39.9782ZM23.8946 41.8468H22.0365L23.047 40.3898L23.8946 41.8468ZM23.8154 42.3104L22.8188 43.6207L22.0318 42.3104H23.8154ZM23.9178 42.6084C23.8852 43.5167 23.8526 44.4107 23.82 45.2812L22.9679 43.862L23.9178 42.6084ZM23.671 48.8433L22.8188 47.5944C23.0889 47.2538 23.4056 46.8612 23.7688 46.4023C23.7409 47.2349 23.7083 48.0486 23.671 48.8433ZM22.6419 47.3248L21.799 46.0854H23.6338C23.3264 46.4733 22.9818 46.9038 22.6419 47.3248ZM23.6524 49.34C23.6524 49.3542 23.6524 49.3636 23.6524 49.3778H21.3426C21.5662 49.1366 21.948 48.6777 22.6279 47.8309L23.6524 49.34ZM23.4522 49.8414L22.3112 51.1471L21.3752 49.8414H23.4522ZM22.4929 51.4025L23.6151 50.1158C23.5732 51.0477 23.536 51.9418 23.4941 52.8028L22.4929 51.4025ZM23.7036 57.3772L24.6117 58.664L23.5639 60.0406C23.6105 59.2411 23.6571 58.3517 23.7036 57.3772ZM24.8119 58.9431L25.8411 60.4048H23.699L24.8119 58.9431ZM25.0168 58.6687L25.8085 57.628C25.8551 58.4795 25.9016 59.2647 25.9389 59.9743L25.0168 58.6687ZM25.8551 50.0969L27.0472 51.3978L25.9855 52.817C25.9435 51.9513 25.897 51.043 25.8551 50.0969ZM28.23 48.9616L27.1077 47.6181L27.9599 46.3077C28.0531 47.2207 28.1415 48.1053 28.23 48.9616ZM27.8575 45.2291L26.8237 43.8715L27.62 42.5895C27.6992 43.493 27.7783 44.3776 27.8575 45.2291ZM27.5315 41.5346L26.5489 40.1627L27.3173 38.8523C27.3871 39.77 27.457 40.6594 27.5315 41.5346ZM27.2661 38.19H25.4732L26.2695 36.5438L27.2661 38.1664C27.2661 38.1758 27.2661 38.1853 27.2661 38.19ZM27.2381 37.7501L26.372 36.3404L27.0472 34.9496C27.1031 35.9004 27.1683 36.8371 27.2381 37.7501ZM26.2509 36.1464L25.3009 34.6043H26.996L26.2509 36.1464ZM25.273 34.1454L26.06 32.6032L26.968 34.1454H25.273ZM26.968 33.7622L26.1671 32.3951L26.8144 31.1226C26.8609 32.0166 26.9122 32.8965 26.968 33.7622ZM26.7911 30.7441L26.0506 32.2011L25.1752 30.7157H26.7911C26.7911 30.7252 26.7911 30.7347 26.7911 30.7441ZM26.7492 29.9541L25.9948 28.4876L26.6141 27.2104C26.656 28.1423 26.7026 29.0553 26.7492 29.9541ZM25.8877 28.2795L25.1519 26.8461H26.5815L25.8877 28.2795ZM26.5676 26.1649L25.8597 24.7268L26.4604 23.4306C26.493 24.3531 26.5303 25.2661 26.5676 26.1649ZM26.4232 22.2906L25.7945 20.8856L26.344 19.5847C26.3673 20.5024 26.3906 21.4012 26.4232 22.2906ZM26.3301 19.2252L25.7107 20.7011L25.0355 19.1921H26.3301C26.3301 19.2015 26.3301 19.211 26.3301 19.2252ZM26.3161 18.6386L25.7107 17.3471L26.2649 16.0983C26.2788 16.9498 26.2975 17.8013 26.3161 18.6386ZM26.2509 15.1521L25.6781 14.1398L26.223 13.118C26.2276 13.8039 26.2416 14.4804 26.2509 15.1521ZM26.1252 12.9761L25.585 13.9837L25.0122 12.9761H26.1252ZM25.5011 14.1445L24.9237 15.2278C24.919 14.5277 24.919 13.8229 24.919 13.1227L25.5011 14.1445ZM24.7048 30.7157H24.7235C24.7514 31.87 24.784 33.0148 24.8166 34.1407H24.621C24.649 33.0148 24.6769 31.8747 24.7048 30.7157ZM24.607 34.6043H24.8306C24.8678 35.82 24.9051 37.0169 24.947 38.19H24.4999C24.5372 37.0169 24.5698 35.82 24.607 34.6043ZM24.4906 15.1805L23.9784 14.1729L24.4906 13.1795C24.4906 13.8418 24.4906 14.5135 24.4906 15.1805ZM24.4208 12.9761L23.8899 14.0026L23.3683 12.9761H24.4208ZM23.3031 13.1748L23.8061 14.1682L23.2752 15.1947C23.2845 14.5277 23.2938 13.856 23.3031 13.1748ZM23.2612 15.9895L23.8107 17.2904L23.21 18.5487C23.2286 17.7067 23.2473 16.8552 23.2612 15.9895ZM23.1914 19.1873H23.2147L23.1914 19.2015C23.1914 19.1968 23.1914 19.1921 23.1914 19.1873ZM23.1914 19.3292L23.7921 20.8288L23.1029 22.3473C23.1355 21.3539 23.1634 20.351 23.1914 19.3292ZM23.0656 23.3739L23.6338 24.6653L22.9632 26.0135C23.0005 25.1478 23.033 24.268 23.0656 23.3739ZM24.2718 26.8414L23.5639 28.218L22.9353 26.8414H24.2718ZM22.912 27.2388L23.4568 28.4356L22.7909 29.7365C22.8328 28.9181 22.8701 28.0855 22.912 27.2388ZM22.763 30.2048L23.5593 28.6532L24.2904 30.2474C24.2904 30.2474 24.2904 30.2474 24.2904 30.2521H22.763C22.763 30.2379 22.763 30.2238 22.763 30.2048ZM22.7257 30.9428L23.3404 32.3951L22.5581 33.8143C22.6139 32.8776 22.6698 31.9173 22.7257 30.9428ZM22.4882 34.8692L23.1634 36.2931L22.288 37.7927C22.3578 36.8418 22.423 35.8673 22.4882 34.8692ZM23.2659 36.506L24.0669 38.19H22.2833L23.2659 36.506ZM22.2041 38.9327L22.9259 40.1769L21.9992 41.5156C22.0644 40.6736 22.1343 39.8174 22.2041 38.9327ZM21.9061 42.5989L22.6512 43.8383L21.6779 45.1203C21.7524 44.3067 21.8316 43.4599 21.9061 42.5989ZM21.6314 45.6218L22.7956 44.0843L23.7223 45.6265L21.6314 45.6218ZM21.5662 46.2746L22.4463 47.5708C21.9899 48.1337 21.5708 48.6493 21.2961 48.9757C21.3845 48.1053 21.4777 47.2018 21.5662 46.2746ZM21.175 50.078L22.1063 51.3789L20.863 52.8028C20.9701 51.9371 21.0725 51.0288 21.175 50.078ZM20.7512 53.7773L21.7711 55.0782L20.4066 56.4926C20.5184 55.6459 20.6348 54.7376 20.7512 53.7773ZM20.2809 57.4293L21.5149 58.7302L19.8897 60.1967C20.0061 59.383 20.1412 58.4605 20.2809 57.4293ZM19.3402 63.6547C19.4427 63.0634 19.587 62.193 19.7547 61.0766L21.0306 62.3349L19.3402 63.6547ZM20.0201 60.8637H22.9166L21.3007 62.122L20.0201 60.8637ZM22.9259 63.7257L21.5475 62.368L23.075 61.1806C23.0144 62.2923 22.9632 63.1533 22.9259 63.7257ZM20.1691 60.4048L21.7431 58.9809L23.0889 60.4048H20.1691ZM23.1402 59.9649L21.9946 58.7538L23.2659 57.609C23.2193 58.4653 23.1774 59.2505 23.1402 59.9649ZM23.3171 56.5163L22.2088 55.1066L23.4475 53.8246C23.4056 54.7707 23.359 55.6695 23.3171 56.5163ZM23.3683 63.5648C23.4056 62.9546 23.4568 62.0794 23.5174 60.9725L24.5605 62.2308L23.3683 63.5648ZM23.8573 60.8637H25.7759L24.784 61.9801L23.8573 60.8637ZM24.9936 62.2403L25.9994 61.1097C26.0646 62.1977 26.1158 63.0539 26.1531 63.6405L24.9936 62.2403ZM26.181 56.6014C26.1345 55.731 26.0832 54.7991 26.0367 53.8151L27.3313 55.1255L26.181 56.6014ZM26.223 57.4104L27.6479 58.7538L26.3766 60.1541C26.3301 59.3404 26.2788 58.4227 26.223 57.4104ZM26.6002 63.8156C26.5629 63.2242 26.5024 62.2781 26.4325 61.034L28.0484 62.3254L26.6002 63.8156ZM28.2859 62.0794L26.7678 60.8637H29.4641L28.2859 62.0794ZM30.1812 63.5932L28.5467 62.2876L29.7668 61.0292C29.9391 62.1315 30.0788 62.9924 30.1812 63.5932ZM29.6364 60.1635L28.1183 58.7349L29.2545 57.4813C29.3942 58.4747 29.52 59.3688 29.6364 60.1635ZM28.7795 53.7915C28.8959 54.7328 29.0077 55.6269 29.1148 56.4548L27.769 55.0924L28.7795 53.7915Z" fill="#FFC000"/>
<path d="M40.9013 98.5189C38.0885 91.9907 36.915 88.4286 36.9057 88.3907L36.8452 88.2015H36.8172V83.8541H35.8114L35.7462 83.6176C34.1349 77.6476 31.5364 66.6963 31.5085 66.5875L31.5038 66.5781V65.14H31.9695V64.5581C29.9205 64.946 27.8436 64.9839 25.7574 64.8609C23.0518 65.1636 20.3462 65.2393 17.6219 64.7426V65.1352H18.2506V66.8714H18.2785C17.8548 68.6453 15.5729 78.1869 14.1107 83.6129L14.0455 83.8494H13.1188V88.2535L13.0769 88.386C13.0629 88.4238 11.8941 91.9812 9.08137 98.5142C6.57602 104.328 3.64689 109.484 3.61895 109.536L3.35352 109.995H14.8698L14.8325 109.659C14.8279 109.617 14.4087 105.501 16.1411 101.428L16.1085 101.409C16.1085 101.409 16.1085 101.405 16.1131 101.4L16.1504 101.419C16.1737 101.357 18.6651 95.1365 24.9936 95.0798C31.3176 95.1365 33.8136 101.357 33.8369 101.419L33.8741 101.4C33.8741 101.405 33.8741 101.405 33.8741 101.409L33.8415 101.428C35.5692 105.496 35.1548 109.622 35.1501 109.659L35.1129 109.995H46.6291L46.3683 109.536C46.3311 109.489 43.402 104.333 40.9013 98.5189ZM40.4495 98.7885C40.701 99.3751 40.9571 99.957 41.2179 100.525L37.064 97.7147L38.9454 95.198C39.3831 96.2719 39.8814 97.4687 40.4495 98.7885ZM31.8065 80.4103L29.0264 78.1869H33.5761L31.8065 80.4103ZM31.8624 81.011L34.9126 83.4567H29.9205L31.8624 81.011ZM29.0916 77.7233L30.8985 75.6844L33.5901 77.7233H29.0916ZM30.8472 75.0978L28.6213 73.4137H32.3374L30.8472 75.0978ZM28.5514 72.9501L30.0789 71.6303L32.1139 72.9501H28.5514ZM30.0509 71.0863L28.0485 69.7854L31.5271 69.809L30.0509 71.0863ZM27.7877 68.8913L29.3571 68.054L31.3176 68.8913H27.7877ZM29.7017 71.3843L28.0252 72.8319C27.8855 71.8621 27.7458 70.916 27.6247 70.0361L29.7017 71.3843ZM30.5585 75.429L28.7191 77.501C28.5281 76.2521 28.3326 74.9133 28.137 73.5935L30.5585 75.429ZM31.5318 80.7509L29.5852 83.1966C29.4642 82.4207 29.1987 80.713 28.8867 78.6316L31.5318 80.7509ZM29.9205 88.4995L28.0392 90.7797L25.4873 88.4995H29.9205ZM30.1627 89.0577C30.335 89.8004 30.7308 91.3994 31.4293 93.8025L28.4443 91.1392L30.1627 89.0577ZM30.7075 89.1429L34.0185 91.5224L32.0487 94.1005C31.3362 91.6785 30.9124 90.0086 30.7075 89.1429ZM34.4562 91.8346L38.1584 94.4932H32.4259L34.4562 91.8346ZM38.3586 95.0845L36.617 97.4119L33.1663 95.0845H38.3586ZM36.7241 98.1736L40.9199 101.007H34.6053L36.7241 98.1736ZM41.2086 101.598L39.6998 104.763L35.2572 101.598H41.2086ZM38.4657 94.0154L34.8009 91.3852L36.5844 89.053C36.8452 89.8004 37.4459 91.4798 38.4657 94.0154ZM36.1001 88.7976L34.3585 91.073L31.1918 88.7976H36.1001ZM35.192 83.1209L32.1325 80.6704L33.9673 78.3666C34.3957 80.0555 34.8148 81.7017 35.192 83.1209ZM33.6925 77.255L31.1872 75.358L32.7798 73.5604C33.0685 74.743 33.3759 75.9966 33.6925 77.255ZM32.5749 72.7231L30.4281 71.3323L31.923 70.0408C32.1139 70.8403 32.3374 71.7486 32.5749 72.7231ZM31.5877 68.6595L29.7156 67.86L31.2058 67.0606C31.285 67.3917 31.4154 67.9452 31.5877 68.6595ZM30.8659 66.8855L29.3384 67.6992L27.4291 66.8855H30.8659ZM28.9752 67.8932L27.4431 68.7115C27.3686 68.1391 27.2988 67.6188 27.2382 67.1505L28.9752 67.8932ZM27.0613 68.8298L25.2684 67.9215L26.8377 67.1126C26.8983 67.6188 26.9728 68.2006 27.0613 68.8298ZM26.4745 68.8913H23.387L24.9145 68.106L26.4745 68.8913ZM26.6002 66.8761L24.9145 67.7465L23.1961 66.8761H26.6002ZM23.0098 67.141L24.5652 67.9263L22.791 68.8393C22.8701 68.2196 22.9446 67.6424 23.0098 67.141ZM9.06275 101.007L13.2585 98.1736L15.3727 101.007H9.06275ZM14.7208 101.598L10.2735 104.763L8.76471 101.598H14.7208ZM11.6193 95.0845H16.807L13.361 97.4119L11.6193 95.0845ZM11.8196 94.4932L15.5171 91.8346L17.5474 94.4932H11.8196ZM15.9595 91.5176L19.2704 89.1382C19.0609 90.0086 18.6418 91.6737 17.9246 94.0911L15.9595 91.5176ZM21.7991 69.7854L19.7967 71.0863L18.3205 69.809L21.7991 69.7854ZM18.53 68.8913L20.4626 68.0635L22.004 68.8913H18.53ZM21.2915 72.9501H17.729L19.7641 71.6303L21.2915 72.9501ZM21.2216 73.4137L18.9957 75.0978L17.5055 73.4137H21.2216ZM20.756 77.7233H16.2621L18.9538 75.6844L20.756 77.7233ZM20.8211 78.1822L18.041 80.4055L16.2715 78.1822H20.8211ZM19.927 83.4567H14.9303L17.9805 81.011L19.927 83.4567ZM19.8479 88.9016L21.6733 91.1155L18.516 93.8924C19.2891 91.2527 19.6989 89.5686 19.8479 88.9016ZM20.2204 88.4995H24.649L22.0831 90.756L20.2204 88.4995ZM18.3111 80.7509L20.9562 78.6316C20.6395 80.713 20.3788 82.4207 20.2577 83.1966L18.3111 80.7509ZM19.2891 75.429L21.7059 73.5982C21.515 74.9181 21.3148 76.2568 21.1238 77.5057L19.2891 75.429ZM20.1459 71.3843L22.2228 70.0361C22.1018 70.9207 21.9667 71.8668 21.8224 72.8319L20.1459 71.3843ZM20.8398 67.9074L22.6047 67.1552C22.5442 67.6283 22.4743 68.1628 22.3951 68.7399L20.8398 67.9074ZM22.4184 66.8855L20.4765 67.7134L18.9258 66.8855H22.4184ZM18.6325 67.0842L20.0993 67.8695L18.2553 68.6595C18.4229 67.9641 18.5533 67.4201 18.6325 67.0842ZM17.9246 70.0408L19.4195 71.3323L17.2727 72.7231C17.5102 71.7486 17.729 70.8403 17.9246 70.0408ZM17.0678 73.5557L18.6604 75.3533L16.155 77.2502C16.4717 75.9966 16.7791 74.743 17.0678 73.5557ZM15.8756 78.3666L17.7104 80.6704L14.6509 83.1209C15.0281 81.7017 15.4519 80.0555 15.8756 78.3666ZM18.7815 88.7976L15.6149 91.073L13.8779 88.7976H18.7815ZM13.3936 89.053L15.1771 91.3852L11.5122 94.0154C12.5274 91.4798 13.1328 89.8004 13.3936 89.053ZM9.52842 98.7885C10.0966 97.4687 10.5948 96.2719 11.0326 95.198L12.9139 97.7147L8.76005 100.525C9.01618 99.957 9.2723 99.3751 9.52842 98.7885ZM8.22452 101.679L9.84043 105.071L4.63413 108.78C5.40251 107.375 6.79489 104.749 8.22452 101.679ZM4.72727 109.409L10.0919 105.591L11.908 109.409H4.72727ZM14.3016 109.409H12.7835C13.0955 108.784 13.7009 107.521 14.4646 105.69C14.2225 107.417 14.2644 108.798 14.3016 109.409ZM12.3458 109.115L10.5203 105.284L15.4239 101.792C14.0269 105.638 12.8208 108.165 12.3458 109.115ZM15.8151 100.7L13.7009 97.8708L17.58 95.2501C17.2401 96.3665 16.8489 97.6154 16.3925 98.9967C16.197 99.588 16.006 100.151 15.8151 100.7ZM16.942 98.973C17.4124 97.5302 17.8175 96.234 18.1668 95.0845H21.7665C19.48 95.9502 17.9107 97.6059 16.942 98.973ZM18.679 94.4932L22.0319 91.546L24.4628 94.4932H18.679ZM24.8167 94.0722L22.4324 91.1865L24.8167 89.0909V94.0722ZM20.5557 83.8588L20.5743 83.7311C20.5883 83.627 21.8876 75.3012 22.6559 69.7759L24.9238 69.7617L27.1916 69.7759C27.96 75.3012 29.2546 83.627 29.2732 83.7311L29.2919 83.8588H20.5557ZM25.3243 89.1003L27.6899 91.2102L25.3243 94.0769V89.1003ZM28.0904 91.5697L31.3641 94.4932H25.6828L28.0904 91.5697ZM28.2115 95.0845H31.8112C32.1558 96.234 32.5609 97.5302 33.0359 98.973C32.0673 97.6059 30.498 95.9502 28.2115 95.0845ZM33.5854 98.9967C33.1337 97.6154 32.7379 96.3665 32.3979 95.2501L36.2771 97.8708L34.1629 100.7C33.9719 100.151 33.781 99.588 33.5854 98.9967ZM35.6717 109.409C35.7089 108.798 35.7508 107.417 35.5133 105.69C36.2724 107.521 36.8824 108.784 37.1944 109.409H35.6717ZM34.554 101.792L39.4576 105.284L37.6322 109.115C37.1525 108.165 35.9511 105.638 34.554 101.792ZM38.0699 109.409L39.8861 105.591L45.246 109.409H38.0699ZM40.1329 105.071L41.7488 101.679C43.1831 104.749 44.5755 107.375 45.3392 108.78L40.1329 105.071Z" fill="#FFC000"/>
<path d="M31.8574 69.8091L31.8764 69.8377C31.8764 69.8282 31.8717 69.8186 31.8669 69.8091H31.8574Z" fill="#FFC000"/>
<path d="M17.9707 69.8377L17.9897 69.8091H17.9802C17.9802 69.8186 17.9755 69.8282 17.9707 69.8377Z" fill="#FFC000"/>
<path d="M25.3848 88.1304H24.8027V94.739H25.3848V88.1304Z" fill="#FFD143"/>
<path d="M11.2322 88.3484C11.2182 88.3862 9.86775 91.9436 6.61265 98.4766C3.72544 104.286 0.339946 109.442 0.302692 109.494L0 109.958H10.543L10.6315 109.82C10.6547 109.783 13.0437 105.918 15.6142 99.1672C18.2407 92.2559 19.1394 88.566 19.1487 88.5282L19.2372 88.1592H11.3067L11.2322 88.3484ZM18.4875 88.7505C18.1988 89.8338 17.2115 93.3155 15.0694 98.9496C12.7922 104.934 10.6641 108.624 10.2217 109.362H1.08969C1.98379 107.961 4.7313 103.576 7.13887 98.7415C9.98417 93.0269 11.3859 89.5689 11.7072 88.7505H18.4875Z" fill="#FFD143"/>
<path d="M27.3556 66.6658L27.2441 66.9771L32.9729 69.0936L33.0843 68.7824L27.3556 66.6658Z" fill="#FFD143"/>
<path d="M32.1512 66.6704L27.6094 68.7749L27.7447 69.0762L32.2864 66.9716L32.1512 66.6704Z" fill="#FFD143"/>
<path d="M22.584 66.6827L22.4551 66.9868L27.6092 69.2407L27.7381 68.9366L22.584 66.6827Z" fill="#FFD143"/>
<path d="M27.1957 66.6771L22.1465 68.939L22.278 69.242L27.3273 66.98L27.1957 66.6771Z" fill="#FFD143"/>
<path d="M32.5321 66.5404L32.4856 66.3701H27.0371L27.0744 66.635C27.7077 71.2379 29.9243 83.561 29.9476 83.684L29.9802 83.8732H37.5196L37.4264 83.5705C35.5637 77.6052 32.5601 66.654 32.5321 66.5404ZM30.3621 83.4144C30.0826 81.8627 28.192 71.2899 27.5633 66.8384H32.1363C32.5182 68.2292 35.1539 77.7992 36.8955 83.4144H30.3621Z" fill="#FFD143"/>
<path d="M33.8552 73.0126L29.1914 77.5728L29.5047 77.9034L34.1684 73.3433L33.8552 73.0126Z" fill="#FFD143"/>
<path d="M28.5503 72.945L28.3027 73.3345L35.3173 77.9351L35.5648 77.5456L28.5503 72.945Z" fill="#FFD143"/>
<path d="M32.8026 69.5769L28.2949 72.9482L28.5655 73.3216L33.0731 69.9503L32.8026 69.5769Z" fill="#FFD143"/>
<path d="M27.914 69.3919L27.6953 69.7935L33.9052 73.2843L34.1239 72.8827L27.914 69.3919Z" fill="#FFD143"/>
<path d="M34.1715 72.9077H28.4297V73.3666H34.1715V72.9077Z" fill="#FFD143"/>
<path d="M35.5733 77.6758H29.1562V78.1394H35.5733V77.6758Z" fill="#FFD143"/>
<path d="M35.2781 77.7508L30 83.4814L30.3332 83.7982L35.6114 78.0676L35.2781 77.7508Z" fill="#FFD143"/>
<path d="M29.0586 78.2767L37.0776 83.8352L37.3337 83.452L29.3147 77.8936L29.0586 78.2767Z" fill="#FFD143"/>
<path d="M24.5312 68.8486V69.7143L33.4118 69.7664L33.1556 68.8486H24.5312Z" fill="#FFC000"/>
<path d="M17.3195 66.5404C17.2915 66.6492 14.2879 77.6005 12.4252 83.5705L12.332 83.8732H19.8714L19.904 83.684C19.9273 83.561 22.1439 71.2379 22.7772 66.635L22.8145 66.3701H17.366L17.3195 66.5404ZM22.2883 66.8384C21.6596 71.2852 19.7643 81.8627 19.4895 83.4144H12.956C14.693 77.7992 17.3334 68.2292 17.7153 66.8384H22.2883Z" fill="#FFD143"/>
<path d="M15.9949 73.0136L15.6816 73.3442L20.3454 77.9043L20.6587 77.5737L15.9949 73.0136Z" fill="#FFD143"/>
<path d="M21.2986 72.9501L14.2773 77.5405L14.5218 77.9264L21.543 73.336L21.2986 72.9501Z" fill="#FFD143"/>
<path d="M17.052 69.5794L16.7812 69.9526L21.2872 73.3262L21.558 72.953L17.052 69.5794Z" fill="#FFD143"/>
<path d="M21.9336 69.3867L15.7266 72.8818L15.9456 73.2832L22.1525 69.788L21.9336 69.3867Z" fill="#FFD143"/>
<path d="M21.4215 72.9077H15.6797V73.3666H21.4215V72.9077Z" fill="#FFD143"/>
<path d="M20.6952 77.6758H14.2734V78.1394H20.6952V77.6758Z" fill="#FFD143"/>
<path d="M14.5704 77.7538L14.2402 78.0669L19.5122 83.8038L19.8424 83.4907L14.5704 77.7538Z" fill="#FFD143"/>
<path d="M20.5317 77.8893L12.5137 83.4512L12.771 83.834L20.789 78.2721L20.5317 77.8893Z" fill="#FFD143"/>
<path d="M17.039 94.4458H8.9082V95.0371H17.039V94.4458Z" fill="#FFD143"/>
<path d="M11.7263 88.2555L11.293 88.6504L16.6449 94.7108L17.0783 94.3159L11.7263 88.2555Z" fill="#FFD143"/>
<path d="M18.7072 88.202L8.58984 94.4902L8.89364 94.9946L19.011 88.7064L18.7072 88.202Z" fill="#FFD143"/>
<path d="M19.2913 88.248L18.873 88.6592L24.7862 94.8665L25.2045 94.4553L19.2913 88.248Z" fill="#FFD143"/>
<path d="M24.9186 88.2142L16.9414 94.2891L17.2905 94.7622L25.2677 88.6873L24.9186 88.2142Z" fill="#FFD143"/>
<path d="M30.8972 88.241L24.9883 94.4526L25.4069 94.8635L31.3158 88.6519L30.8972 88.241Z" fill="#FFD143"/>
<path d="M25.2743 88.2144L24.9219 88.6851L32.783 94.7594L33.1354 94.2887L25.2743 88.2144Z" fill="#FFD143"/>
<path d="M14.5148 100.96H5.50391V101.551H14.5148V100.96Z" fill="#FFD143"/>
<path d="M9.13116 94.5507L8.69336 94.9404L14.1137 101.224L14.5515 100.834L9.13116 94.5507Z" fill="#FFD143"/>
<path d="M16.4921 94.4961L5.35156 100.997L5.64151 101.51L16.7821 95.0088L16.4921 94.4961Z" fill="#FFD143"/>
<path d="M6.01599 101.114L5.50781 101.402L10.1305 109.806L10.6387 109.518L6.01599 101.114Z" fill="#FFD143"/>
<path d="M14.0197 100.987L0.400391 109.418L0.703315 109.923L14.3226 101.492L14.0197 100.987Z" fill="#FFD143"/>
<path d="M43.3836 98.4766C40.1331 91.9484 38.778 88.3862 38.764 88.3484L38.6942 88.1592H30.7637L30.8522 88.5282C30.8615 88.566 31.7602 92.2559 34.3867 99.1672C36.9572 105.922 39.3461 109.783 39.3694 109.82L39.4533 109.958H49.4514H49.9962L49.6935 109.494C49.6609 109.442 46.2755 104.286 43.3836 98.4766ZM39.7792 109.362C39.3368 108.619 37.2087 104.934 34.9315 98.9496C32.7894 93.3108 31.8021 89.8338 31.5134 88.7505H38.2984C38.6197 89.5736 40.0214 93.0269 42.8667 98.7415C45.2742 103.576 48.0218 107.966 48.9159 109.362H39.7792Z" fill="#FFD143"/>
<path d="M41.0878 94.4458H32.957V95.0371H41.0878V94.4458Z" fill="#FFD143"/>
<path d="M38.2734 88.2559L32.9238 94.3179L33.3573 94.7126L38.7068 88.6506L38.2734 88.2559Z" fill="#FFD143"/>
<path d="M31.2921 88.2046L30.9883 88.709L41.1056 94.9984L41.4094 94.4941L31.2921 88.2046Z" fill="#FFD143"/>
<path d="M44.4914 100.96H35.4805V101.551H44.4914V100.96Z" fill="#FFD143"/>
<path d="M40.8694 94.5573L35.4375 100.83L35.8745 101.22L41.3064 94.9478L40.8694 94.5573Z" fill="#FFD143"/>
<path d="M33.5093 94.4905L33.2188 95.0029L44.3529 101.517L44.6434 101.005L33.5093 94.4905Z" fill="#FFD143"/>
<path d="M43.9814 101.11L39.3691 109.52L39.8777 109.807L44.4899 101.397L43.9814 101.11Z" fill="#FFD143"/>
<path d="M35.966 101.004L35.6641 101.51L49.2953 109.911L49.5973 109.406L35.966 101.004Z" fill="#FFD143"/>
<path d="M22.4651 66.6813L16.7363 68.7979L16.8477 69.1091L22.5765 66.9925L22.4651 66.6813Z" fill="#FFD143"/>
<path d="M17.6644 66.6772L17.5293 66.9785L22.0721 69.081L22.2072 68.7797L17.6644 66.6772Z" fill="#FFD143"/>
<path d="M33.0672 64.123H16.4844V65.0928H33.0672V64.123Z" fill="#FFD143"/>
<path d="M32.5271 65.0972H17.2109V66.8333H32.5271V65.0972Z" fill="#FFD143"/>
<path d="M17.2109 66.8333H17.5975L18.3472 65.6696L32.5271 65.4567V65.0972H17.2109V66.8333Z" fill="#FFC000"/>
<path d="M38.6605 83.8115H11.2832V86.1342H38.6605V83.8115Z" fill="#FFD143"/>
<path d="M38.6605 86.1343H11.2832V88.457H38.6605V86.1343Z" fill="#FFD143"/>
<path d="M16.4336 69.7664L25.3188 69.7143V68.8486H16.6944L16.4336 69.7664Z" fill="#FFC000"/>
<path d="M11.6328 85.964H11.9681L12.8203 84.9186L38.2278 84.3367V84.1333H11.6328V85.964Z" fill="#FFC000"/>
<path d="M11.6328 88.1305H11.9681L12.8203 87.0851L38.2278 86.4985V86.2998H11.6328V88.1305Z" fill="#FFC000"/>
<path d="M38.6605 85.9639H11.2832V86.2997H38.6605V85.9639Z" fill="#FFC000"/>
<path d="M33.3566 94.4458H16.6387V95.0371H33.3566V94.4458Z" fill="#FFD143"/>
<path d="M14.25 101.135L14.7809 101.381C14.8088 101.319 17.7147 95.0419 25.0957 95.0371V94.4458C17.3328 94.4458 14.2826 101.069 14.25 101.135Z" fill="#FFD143"/>
<path d="M24.9043 94.4458V95.0371C32.2853 95.0419 35.1865 101.319 35.2144 101.381L35.7453 101.135C35.7174 101.069 32.6672 94.4458 24.9043 94.4458Z" fill="#FFD143"/>
<path d="M14.2592 101.125C12.4896 104.725 12.5781 108.273 12.6573 109.366H10.3848V109.957H13.3092L13.2673 109.622C13.2627 109.579 12.7784 105.463 14.7808 101.386L14.2592 101.125Z" fill="#FFD143"/>
<path d="M35.7403 101.125L35.2188 101.39C37.2165 105.459 36.7369 109.584 36.7322 109.626L36.6903 109.962H39.6148V109.371H37.3423C37.4261 108.273 37.5146 104.725 35.7403 101.125Z" fill="#FFD143"/>
<path d="M29.5435 49.6049L29.497 49.5576C28.3514 40.6074 27.2012 28.0051 27.0289 12.7159L27.0242 12.4604H22.563L22.5584 12.7159C22.2044 44.1742 17.7106 64.3028 17.6641 64.5015L18.1623 64.6198C18.167 64.6056 18.2042 64.44 18.2601 64.1609L20.6677 62.5761L22.5909 64.1703C22.5723 64.3974 22.5677 64.5204 22.563 64.5393L23.0706 64.5772C23.0706 64.5583 23.0846 64.3927 23.1032 64.0994L24.8076 62.4863L26.4933 64.1987C26.512 64.4305 26.5213 64.563 26.5213 64.5772L27.0289 64.5346C27.0289 64.5204 27.0196 64.4258 27.0102 64.265L29.0034 62.5336L31.3271 64.0994C31.3923 64.4163 31.4342 64.5961 31.4389 64.615L31.9325 64.4968C31.9092 64.3927 30.7124 59.0471 29.5063 49.638L29.5435 49.6049ZM29.4038 52.6987L27.9695 51.3789L29.0592 50.1489C29.171 51.0383 29.2874 51.885 29.4038 52.6987ZM28.4864 58.5031L26.9125 57.2542H29.8323L28.4864 58.5031ZM28.5051 58.9856L30.2886 60.4048H26.9776L28.5051 58.9856ZM26.7914 56.7954L28.1139 55.362L29.795 56.7954H26.7914ZM28.0813 54.8558L26.5632 53.5597H29.2781L28.0813 54.8558ZM26.4421 53.0961L27.746 51.6249L29.3433 53.0961H26.4421ZM19.8341 56.7954L21.4966 55.3431L22.8471 56.7954H19.8341ZM22.8797 57.2542L21.2358 58.5078L19.8295 57.2542H22.8797ZM20.3324 53.5597H22.9821L21.5199 54.8369L20.3324 53.5597ZM20.351 53.0961L21.8645 51.6343L23.1079 53.0961H20.351ZM24.4397 15.9185L23.7645 17.1106L23.1684 15.9185H24.4397ZM23.0753 15.4549L23.7598 14.3385L24.435 15.4549H23.0753ZM25.8134 17.1626L25.1196 15.9138H26.4701L25.8134 17.1626ZM25.8181 17.5316L26.4887 18.7332H25.1894L25.8181 17.5316ZM25.0451 15.4549L25.7762 14.3006L26.5539 15.4549H25.0451ZM25.7203 17.3471L25.0078 18.7001C24.9985 17.8107 24.9892 16.9214 24.9892 16.032L25.7203 17.3471ZM25.0125 19.1873H25.0171H25.0125C25.0125 19.1921 25.0125 19.1921 25.0125 19.1873ZM26.2139 49.3778L27.3688 47.8783L28.8497 49.3778H26.2139ZM28.8869 49.8414L27.7227 51.1518L26.3024 49.8414H28.8869ZM23.7039 56.7954L24.7936 55.3053L25.9252 56.7954H23.7039ZM25.8786 57.2542L24.8588 58.3849L23.9088 57.2542H25.8786ZM24.3419 41.6717L24.7564 40.1059L25.1568 41.7001C25.1615 41.7474 25.1615 41.7947 25.1615 41.8468H24.3326C24.3372 41.79 24.3372 41.7285 24.3419 41.6717ZM23.6993 24.6748L24.3792 23.5205C24.3652 24.3153 24.3512 25.11 24.3326 25.9L23.6993 24.6748ZM25.1848 42.3104C25.1848 42.334 25.1894 42.3577 25.1894 42.3766L24.7517 43.4599L24.3093 42.3766C24.3093 42.3529 24.314 42.3293 24.314 42.3056H25.1848V42.3104ZM25.2127 42.897C25.2407 43.5498 25.2733 44.1884 25.3059 44.8223L24.8681 43.7485L25.2127 42.897ZM24.7517 44.0418L25.3338 45.4799C25.3385 45.5272 25.3385 45.5792 25.3431 45.6265H24.1649C24.1649 45.5792 24.1696 45.5272 24.1743 45.4799L24.7517 44.0418ZM25.3943 46.6388C25.4269 47.2869 25.4595 47.9208 25.4921 48.5405L24.9519 47.5045L25.3943 46.6388ZM24.7657 47.145L24.2115 46.0854H25.3012L24.7657 47.145ZM24.5794 47.5093L24.0206 48.6115C24.0532 47.9634 24.0858 47.3011 24.1184 46.6246L24.5794 47.5093ZM24.7703 47.8735L25.5387 49.3447C25.5387 49.3542 25.5387 49.3684 25.5387 49.3778H24.0066L24.7703 47.8735ZM25.5899 50.2908C25.6318 51.0572 25.6737 51.8046 25.7157 52.5284L24.9566 51.2937L25.5899 50.2908ZM25.548 38.9422L26.6004 40.1816L25.6598 41.5346C25.6225 40.6783 25.5853 39.8174 25.548 38.9422ZM25.7063 42.6084L26.8659 43.8904L25.8367 45.2954C25.7948 44.4202 25.7483 43.5214 25.7063 42.6084ZM25.4782 49.8414L24.761 50.9815L24.0578 49.8414H25.4782ZM25.6784 53.0961H23.8157L24.7564 51.6059L25.6784 53.0961ZM25.6225 53.5597L24.789 54.695L23.9228 53.5597H25.6225ZM24.5654 55.0025L23.6015 56.3176C23.648 55.5607 23.6946 54.7612 23.7412 53.9192L24.5654 55.0025ZM25.0171 54.9978L25.7995 53.9287C25.846 54.7281 25.8973 55.4897 25.9392 56.2088L25.0171 54.9978ZM25.8926 46.3787L27.136 47.6417L26.0323 49.0751C25.9858 48.1999 25.9392 47.3059 25.8926 46.3787ZM27.3409 47.3768L26.0696 46.0854H28.3374L27.3409 47.3768ZM25.9532 45.6218L27.0615 44.108L28.4259 45.6218H25.9532ZM27.0428 43.6539L25.8274 42.3104H28.0254L27.0428 43.6539ZM25.7343 41.8468L26.7634 40.3708L28.0208 41.8468H25.7343ZM26.7448 39.9687L25.6272 38.6536H27.6622L26.7448 39.9687ZM25.5108 37.9819C25.4688 36.9743 25.4316 35.9525 25.3943 34.9165L26.4421 36.3546L25.5108 37.9819ZM25.3524 33.8001C25.3198 32.9013 25.2919 31.9883 25.2639 31.0705L26.1953 32.4045L25.3524 33.8001ZM25.2453 30.2569L26.1301 28.7052L27.0708 30.2569H25.2453ZM25.2267 29.85C25.1988 28.937 25.1755 28.0193 25.1522 27.0921L26.0044 28.4924L25.2267 29.85ZM25.1289 26.0419C25.1103 25.1668 25.0916 24.2822 25.073 23.3975L25.846 24.7268L25.1289 26.0419ZM25.9764 24.9492L26.81 26.3825H25.1941L25.9764 24.9492ZM25.9718 24.5092L25.1662 23.1232H26.7355L25.9718 24.5092ZM25.1336 22.6596L25.9206 21.0796L26.7588 22.6596H25.1336ZM25.0544 22.423C25.0358 21.4107 25.0218 20.3889 25.0125 19.3671L25.8181 20.8903L25.0544 22.423ZM25.0404 39.0368C25.0684 39.6944 25.0963 40.3424 25.1242 40.9858L24.8309 39.8221L25.0404 39.0368ZM24.761 39.5335L24.5421 38.6536H24.9985L24.761 39.5335ZM24.6865 39.8174L24.3698 41.0047C24.3978 40.3093 24.4257 39.6045 24.4537 38.8949L24.6865 39.8174ZM24.4071 22.0446L23.8343 20.8336L24.435 19.7077C24.4257 20.4882 24.4164 21.2688 24.4071 22.0446ZM24.449 18.4777L23.8623 17.2998L24.4676 16.2307C24.4583 16.9781 24.4537 17.7303 24.449 18.4777ZM24.3792 18.7285H23.052L23.7551 17.4796L24.3792 18.7285ZM24.4397 19.1873C24.4397 19.2346 24.4397 19.2867 24.4397 19.334L23.7412 20.6396L23.0566 19.1921H24.4397V19.1873ZM24.3978 22.4372C24.3978 22.5129 24.3931 22.5839 24.3931 22.6596H22.8517L23.7272 21.0275L24.3978 22.4372ZM24.3605 23.1184L23.5782 24.443L22.889 23.1184H24.3605ZM24.3233 26.3494C24.3233 26.3589 24.3233 26.3731 24.3233 26.3825H22.6934L23.5689 24.8971L24.3233 26.3494ZM24.2907 42.897L24.6353 43.7485L24.2022 44.8223C24.2301 44.1931 24.2581 43.5498 24.2907 42.897ZM24.2395 29.8169L23.4944 28.4403L24.3093 27.1016C24.286 28.0146 24.2674 28.9181 24.2395 29.8169ZM24.1184 33.9325L23.3547 32.4093L24.2069 31.1036C24.1789 32.0592 24.151 33.0006 24.1184 33.9325ZM23.2429 32.1822L22.5071 30.7157H24.2022L23.2429 32.1822ZM23.9833 34.1454H22.2231L23.215 32.6222L23.9833 34.1454ZM24.0718 34.6043L23.038 36.0944L22.1998 34.6043H24.0718ZM24.0858 34.9638C24.0532 35.9146 24.0206 36.856 23.988 37.7832L23.1591 36.3073L24.0858 34.9638ZM24.5608 51.2937L23.8203 52.4669C23.8576 51.7621 23.8995 51.0335 23.9368 50.2814L24.5608 51.2937ZM23.839 41.5204L22.9262 40.1911L23.9461 38.9517C23.9088 39.8221 23.8716 40.6783 23.839 41.5204ZM22.7772 39.9782L21.8645 38.6489H23.8716L22.7772 39.9782ZM23.7645 41.8468H21.5618L22.7633 40.3898L23.7645 41.8468ZM23.6713 42.3104L22.4932 43.6207L21.5571 42.3104H23.6713ZM23.7924 42.6084C23.7551 43.5167 23.7132 44.4107 23.6713 45.2812L22.6608 43.862L23.7924 42.6084ZM23.499 48.8433L22.4932 47.5944C22.8145 47.2538 23.187 46.8612 23.6201 46.4023C23.5828 47.2349 23.5409 48.0486 23.499 48.8433ZM22.2789 47.3248L21.2777 46.0854H23.4525C23.0892 46.4733 22.6841 46.9038 22.2789 47.3248ZM23.4757 49.34C23.4757 49.3542 23.4757 49.3636 23.4757 49.3778H20.7422C21.003 49.1366 21.4593 48.6777 22.265 47.8309L23.4757 49.34ZM23.2429 49.8414L21.8878 51.1471L20.7795 49.8414H23.2429ZM22.1066 51.4025L23.4385 50.1158C23.3919 51.0477 23.3407 51.9418 23.2941 52.8028L22.1066 51.4025ZM23.5409 57.3772L24.6167 58.664L23.3779 60.0406C23.4245 59.2411 23.4804 58.3517 23.5409 57.3772ZM24.8495 58.9431L26.0696 60.4048H23.5316L24.8495 58.9431ZM25.0963 58.6687L26.0323 57.628C26.0882 58.4795 26.1394 59.2647 26.186 59.9743L25.0963 58.6687ZM26.0882 50.0969L27.5039 51.3978L26.2465 52.817C26.1906 51.9513 26.1394 51.043 26.0882 50.0969ZM28.9056 48.9616L27.5784 47.6181L28.5889 46.3077C28.6913 47.2207 28.7985 48.1053 28.9056 48.9616ZM28.4632 45.2291L27.2384 43.8715L28.1838 42.5895C28.2722 43.493 28.37 44.3776 28.4632 45.2291ZM28.0767 41.5346L26.9078 40.1627L27.8205 38.8523C27.9044 39.77 27.9882 40.6594 28.0767 41.5346ZM27.7646 38.19H25.6411L26.5818 36.5438L27.7646 38.1664C27.7646 38.1758 27.7646 38.1853 27.7646 38.19ZM27.7274 37.7501L26.6982 36.3404L27.4946 34.9496C27.5691 35.9004 27.6482 36.8371 27.7274 37.7501ZM26.5585 36.1464L25.4362 34.6043H27.4433L26.5585 36.1464ZM25.399 34.1454L26.3304 32.6032L27.4061 34.1454H25.399ZM27.4061 33.7622L26.4514 32.3951L27.2198 31.1226C27.2803 32.0166 27.3409 32.8965 27.4061 33.7622ZM27.1965 30.7441L26.3164 32.2011L25.2826 30.7157H27.1965C27.1965 30.7252 27.1965 30.7347 27.1965 30.7441ZM27.1453 29.9541L26.2558 28.4876L26.987 27.2104C27.0382 28.1423 27.0894 29.0553 27.1453 29.9541ZM26.1301 28.2795L25.2593 26.8461H26.9544L26.1301 28.2795ZM26.9357 26.1649L26.0975 24.7268L26.81 23.4306C26.8473 24.3531 26.8892 25.2661 26.9357 26.1649ZM26.7588 22.2906L26.0137 20.8856L26.661 19.5847C26.6936 20.5024 26.7262 21.4012 26.7588 22.2906ZM26.6517 19.2252L25.9159 20.7011L25.1149 19.1921H26.6517C26.6517 19.2015 26.6517 19.211 26.6517 19.2252ZM26.6377 18.6386L25.9159 17.3471L26.5725 16.0983C26.5911 16.9498 26.6098 17.8013 26.6377 18.6386ZM26.5585 15.1521L25.8786 14.1398L26.5259 13.118C26.5306 13.8039 26.5446 14.4804 26.5585 15.1521ZM26.4095 12.9761L25.7715 13.9837L25.0916 12.9761H26.4095ZM25.6691 14.1445L24.9845 15.2278C24.9799 14.5277 24.9799 13.8229 24.9799 13.1227L25.6691 14.1445ZM24.7238 30.7157H24.7424C24.775 31.87 24.8122 33.0148 24.8542 34.1407H24.6213C24.6586 33.0148 24.6912 31.8747 24.7238 30.7157ZM24.6073 34.6043H24.8728C24.9147 35.82 24.9613 37.0169 25.0078 38.19H24.4816C24.5235 37.0169 24.5654 35.82 24.6073 34.6043ZM24.4676 15.1805L23.8623 14.1729L24.4723 13.1795C24.4723 13.8418 24.4676 14.5135 24.4676 15.1805ZM24.3885 12.9761L23.7598 14.0026L23.1451 12.9761H24.3885ZM23.0613 13.1748L23.6574 14.1682L23.0287 15.1947C23.0427 14.5277 23.052 13.856 23.0613 13.1748ZM23.0147 15.9895L23.662 17.2904L22.9495 18.5487C22.9775 17.7067 22.9961 16.8552 23.0147 15.9895ZM22.9356 19.1873H22.9588L22.9309 19.2015C22.9309 19.1968 22.9309 19.1921 22.9356 19.1873ZM22.9309 19.3292L23.6387 20.8288L22.8238 22.3473C22.861 21.3539 22.8983 20.351 22.9309 19.3292ZM22.7819 23.3739L23.4525 24.6653L22.6608 26.0135C22.7027 25.1478 22.7446 24.268 22.7819 23.3739ZM24.2115 26.8414L23.3733 28.218L22.6235 26.8414H24.2115ZM22.5956 27.2388L23.2429 28.4356L22.4512 29.7365C22.5025 28.9181 22.5537 28.0855 22.5956 27.2388ZM22.4233 30.2048L23.364 28.6532L24.2301 30.2474C24.2301 30.2474 24.2301 30.2474 24.2301 30.2521H22.4233C22.4233 30.2379 22.4233 30.2238 22.4233 30.2048ZM22.3767 30.9428L23.1032 32.3951L22.1765 33.8143C22.2463 32.8776 22.3115 31.9173 22.3767 30.9428ZM22.0973 34.8692L22.8983 36.2931L21.8598 37.7927C21.939 36.8418 22.0228 35.8673 22.0973 34.8692ZM23.0194 36.506L23.9694 38.19H21.8552L23.0194 36.506ZM21.7574 38.9327L22.6142 40.1769L21.5152 41.5156C21.5991 40.6736 21.6782 39.8174 21.7574 38.9327ZM21.4035 42.5989L22.2883 43.8383L21.1334 45.1203C21.2265 44.3067 21.3196 43.4599 21.4035 42.5989ZM21.0821 45.6218L22.4652 44.0843L23.5642 45.6265L21.0821 45.6218ZM21.0076 46.2746L22.0508 47.5708C21.5106 48.1337 21.0123 48.6493 20.6863 48.9757C20.7888 48.1053 20.9005 47.2018 21.0076 46.2746ZM20.542 50.078L21.6503 51.3789L20.1787 52.8028C20.2952 51.9371 20.4209 51.0288 20.542 50.078ZM20.039 53.7773L21.2498 55.0782L19.6339 56.4926C19.7596 55.6459 19.8993 54.7376 20.039 53.7773ZM19.4802 57.4293L20.9424 58.7302L19.0145 60.1967C19.1589 59.383 19.3126 58.4605 19.4802 57.4293ZM18.3626 63.6547C18.4837 63.0634 18.6513 62.193 18.8562 61.0766L20.3697 62.3349L18.3626 63.6547ZM19.1729 60.8637H22.6096L20.691 62.122L19.1729 60.8637ZM22.6189 63.7257L20.9844 62.368L22.7912 61.1806C22.7167 62.2923 22.6608 63.1533 22.6189 63.7257ZM19.3498 60.4048L21.2172 58.9809L22.8145 60.4048H19.3498ZM22.8704 59.9649L21.5106 58.7538L23.0147 57.609C22.9635 58.4653 22.9169 59.2505 22.8704 59.9649ZM23.0799 56.5163L21.7667 55.1066L23.2336 53.8246C23.1824 54.7707 23.1311 55.6695 23.0799 56.5163ZM23.1405 63.5648C23.1824 62.9546 23.2429 62.0794 23.3174 60.9725L24.5515 62.2308L23.1405 63.5648ZM23.7179 60.8637H25.9904L24.8122 61.9801L23.7179 60.8637ZM25.0684 62.2403L26.2605 61.1097C26.335 62.1977 26.4002 63.0539 26.4421 63.6405L25.0684 62.2403ZM26.4747 56.6014C26.4188 55.731 26.363 54.7991 26.3024 53.8151L27.8345 55.1255L26.4747 56.6014ZM26.5259 57.4104L28.2164 58.7538L26.7076 60.1541C26.6517 59.3404 26.5911 58.4227 26.5259 57.4104ZM26.9683 63.8156C26.9218 63.2242 26.8519 62.2781 26.7681 61.034L28.6867 62.3254L26.9683 63.8156ZM28.9708 62.0794L27.1686 60.8637H30.3678L28.9708 62.0794ZM31.22 63.5932L29.2874 62.2876L30.731 61.0292C30.9266 62.1315 31.0989 62.9924 31.22 63.5932ZM30.5727 60.1635L28.7705 58.7349L30.1163 57.4813C30.284 58.4747 30.433 59.3688 30.5727 60.1635ZM29.5575 53.7915C29.6926 54.7328 29.8276 55.6269 29.958 56.4548L28.3607 55.0924L29.5575 53.7915Z" fill="#FFD143"/>
<path d="M22.8832 11.0127H21.3418L22.5665 12.7204H22.9111H26.6738H27.0184L28.2385 11.0127H26.7018H22.8832Z" fill="#FFD143"/>
<path opacity="0.4" d="M24.3094 12.2474C23.215 12.1386 22.1347 11.8689 21.4268 11.0127H21.3477L22.5724 12.7157H27.0196L27.6623 11.8216C27.49 11.921 27.3037 12.0108 27.1081 12.0723C26.1954 12.3467 25.2454 12.342 24.3094 12.2474Z" fill="#FFC000"/>
<path d="M21.542 11.2871C21.6724 11.2634 22.2359 11.183 23.3582 11.1925C24.8158 11.2066 26.0917 11.0978 26.8135 11.8642C27.1535 12.2237 26.6133 12.7157 26.6133 12.7157H27.0184L28.2432 11.0127H21.3418L21.542 11.2871Z" fill="#FFC000"/>
<path d="M22.8366 8.93115H21.3418V11.0126H22.8366H26.7483H28.2385V8.93115H26.7483H22.8366Z" fill="#FFD143"/>
<path d="M21.556 10.3979C21.4815 10.3932 21.4116 10.3837 21.3418 10.3742V11.0129H28.2385V9.62207C26.1104 10.3317 23.754 10.5209 21.556 10.3979Z" fill="#FFC000"/>
<path d="M26.2316 5.97021H24.9137H24.6669H23.349C22.4456 6.35812 22.3105 7.45088 22.3105 7.45088H24.6715H24.9184H27.2793C27.27 7.45088 27.135 6.35812 26.2316 5.97021Z" fill="#FFD143"/>
<path d="M22.3939 7.08168C22.3241 7.29456 22.3008 7.45066 22.3008 7.45066H27.2696C27.2696 7.45066 27.237 7.19048 27.0973 6.87354C25.7142 7.29456 23.8329 7.59258 22.3939 7.08168Z" fill="#FFC000"/>
</g>
<defs>
<clipPath id="clip0_501_2827">
<rect width="50" height="110" fill="white"/>
</clipPath>
</defs>
</svg>
